<svg class="main-svg" xmlns="http://www.w3.org/2000/svg" xmlns:xlink="http://www.w3.org/1999/xlink" width="655" height="500" style="" viewBox="0 0 655 500"><rect x="0" y="0" width="655" height="500" style="fill: rgb(247, 242, 242); fill-opacity: 1;"/><defs id="defs-501722"><g class="clips"><clipPath id="clip501722xyplot" class="plotclip"><rect width="515" height="325"/></clipPath><clipPath class="axesclip" id="clip501722x"><rect x="60" y="0" width="515" height="500"/></clipPath><clipPath class="axesclip" id="clip501722y"><rect x="0" y="100" width="655" height="325"/></clipPath><clipPath class="axesclip" id="clip501722xy"><rect x="60" y="100" width="515" height="325"/></clipPath></g><g class="gradients"/><g class="patterns"/></defs><g class="bglayer"/><g class="layer-below"><g class="imagelayer"/><g class="shapelayer"/></g><g class="cartesianlayer"><g class="subplot xy"><g class="layer-subplot"><g class="shapelayer"/><g class="imagelayer"/></g><g class="minor-gridlayer"><g class="x"/><g class="y"/></g><g class="gridlayer"><g class="x"/><g class="y"><path class="ygrid crisp" transform="translate(0,422.34)" d="M60,0h515" style="stroke: rgb(231, 226, 226); stroke-opacity: 1; stroke-width: 1px;"/><path class="ygrid crisp" transform="translate(0,369.06)" d="M60,0h515" style="stroke: rgb(231, 226, 226); stroke-opacity: 1; stroke-width: 1px;"/><path class="ygrid crisp" transform="translate(0,315.78)" d="M60,0h515" style="stroke: rgb(231, 226, 226); stroke-opacity: 1; stroke-width: 1px;"/><path class="ygrid crisp" transform="translate(0,262.5)" d="M60,0h515" style="stroke: rgb(231, 226, 226); stroke-opacity: 1; stroke-width: 1px;"/><path class="ygrid crisp" transform="translate(0,209.22)" d="M60,0h515" style="stroke: rgb(231, 226, 226); stroke-opacity: 1; stroke-width: 1px;"/><path class="ygrid crisp" transform="translate(0,155.94)" d="M60,0h515" style="stroke: rgb(231, 226, 226); stroke-opacity: 1; stroke-width: 1px;"/><path class="ygrid crisp" transform="translate(0,102.66)" d="M60,0h515" style="stroke: rgb(231, 226, 226); stroke-opacity: 1; stroke-width: 1px;"/></g></g><g class="zerolinelayer"/><path class="xlines-below"/><path class="ylines-below"/><g class="overlines-below"/><g class="xaxislayer-below"/><g class="yaxislayer-below"/><g class="overaxes-below"/><g class="plot" transform="translate(60,100)" clip-path="url(#clip501722xyplot)"><g class="scatterlayer mlayer"><g class="trace scatter trace04af53" style="stroke-miterlimit: 2; opacity: 1;"><g class="fills"/><g class="errorbars"/><g class="lines"><path class="js-line" d="M9.72,120.14L19.43,119.34L29.15,113.48L38.87,110.02L48.58,102.83L58.3,105.49L68.02,106.82L87.45,100.43L97.17,100.16L116.6,99.63L126.32,99.36L136.04,98.83L145.75,96.17L165.19,101.23L174.91,99.63L184.62,108.16L194.34,113.48L204.06,113.75L213.77,126.27L223.49,123.61L233.21,116.15L242.92,120.14L252.64,118.28L262.36,107.09L272.08,99.1L281.79,102.83L291.51,100.96L301.23,98.3L310.94,98.3L320.66,99.9L330.38,106.02L340.09,109.22L349.81,105.76L359.53,94.57L369.25,102.03L378.96,93.5L388.68,94.3L398.4,95.37L408.11,102.03L427.55,110.29L437.26,100.16L446.98,105.49L456.7,113.22L466.42,112.15L476.13,113.75L495.57,124.14L505.28,132.66" style="vector-effect: non-scaling-stroke; fill: none; stroke: rgb(160, 29, 40); stroke-opacity: 1; stroke-width: 2px; opacity: 1;"/></g><g class="points"/><g class="text"/></g><g class="trace scatter tracebe3fd9" style="stroke-miterlimit: 2; opacity: 1;"><g class="fills"/><g class="errorbars"/><g class="lines"><path class="js-line" d="M9.72,139.06L19.43,139.59L29.15,134L38.87,136.66L48.58,131.07L58.3,132.13L68.02,135.33L77.74,134.53L87.45,130.27L106.89,131.6L116.6,134.53L126.32,151.58L136.04,162.5L155.47,198.46L165.19,209.39L174.91,213.91L194.34,234.69L204.06,236.56L213.77,243.22L223.49,254.41L233.21,252.01L242.92,251.74L252.64,254.94L262.36,256.8L272.08,256L281.79,261.33L291.51,261.86L301.23,259.73L310.94,258.67L320.66,252.54L330.38,252.54L340.09,253.34L349.81,255.2L359.53,259.2L369.25,268.52L378.96,265.59L388.68,264.53L398.4,257.07L408.11,253.87L417.83,255.47L427.55,253.87L437.26,252.27L446.98,247.75L456.7,253.61L466.42,255.47L476.13,258.93L485.85,260.8L495.57,269.86" style="vector-effect: non-scaling-stroke; fill: none; stroke: rgb(73, 156, 201); stroke-opacity: 1; stroke-width: 2px; opacity: 1;"/></g><g class="points"/><g class="text"/></g><g class="trace scatter traceef8fe7" style="stroke-miterlimit: 2; opacity: 1;"><g class="fills"/><g class="errorbars"/><g class="lines"><path class="js-line" d="M19.43,287.7L29.15,287.7L38.87,282.91L48.58,288.77L58.3,287.17L68.02,292.77L77.74,286.64L87.45,286.91L97.17,290.1L106.89,291.17L116.6,296.23L126.32,295.7L145.75,299.43L155.47,291.7L165.19,286.37L174.91,280.51L184.62,280.25L194.34,279.45L204.06,274.65L213.77,273.59L223.49,277.05L262.36,271.72L272.08,268.52L281.79,266.93L291.51,269.59L301.23,268.52L310.94,268.52L320.66,263.73L330.38,262.4L340.09,271.19L349.81,274.12L359.53,274.65L369.25,269.86L378.96,272.79L388.68,269.32L398.4,264.53L408.11,261.86L417.83,257.34L427.55,256.54L437.26,260.53L446.98,262.13L456.7,259.47L466.42,249.34L476.13,245.61L485.85,248.01L495.57,249.61L505.28,262.4L515,266.13" style="vector-effect: non-scaling-stroke; fill: none; stroke: rgb(249, 162, 55); stroke-opacity: 1; stroke-width: 2px; opacity: 1;"/></g><g class="points"/><g class="text"/></g><g class="trace scatter trace41e6e3" style="stroke-miterlimit: 2; opacity: 1;"><g class="fills"/><g class="errorbars"/><g class="lines"><path class="js-line" d="M19.43,272.79L29.15,271.19L38.87,268.79L48.58,267.73L58.3,270.12L68.02,262.4L77.74,264.53L87.45,268.52L97.17,266.66L106.89,260L116.6,258.93L126.32,258.14L136.04,258.4L165.19,271.99L174.91,269.32L184.62,260.8L194.34,261.07L204.06,263.46L213.77,265.06L233.21,274.12L242.92,267.99L252.64,259.73L262.36,255.2L272.08,264.26L281.79,264L291.51,270.39L301.23,267.46L320.66,265.59L330.38,267.73L340.09,268.26L349.81,276.78L359.53,275.72L369.25,262.93L378.96,272.52L388.68,274.65L398.4,276.52L408.11,262.4L417.83,257.87L427.55,260L437.26,268.52L446.98,263.46L456.7,256.54L466.42,254.67L476.13,261.07L485.85,263.2L505.28,276.78L515,285.04" style="vector-effect: non-scaling-stroke; fill: none; stroke: rgb(111, 186, 58); stroke-opacity: 1; stroke-width: 2px; opacity: 1;"/></g><g class="points"/><g class="text"/></g><g class="trace scatter trace36bd28" style="stroke-miterlimit: 2; opacity: 1;"><g class="fills"/><g class="errorbars"/><g class="lines"><path class="js-line" d="M19.43,286.11L29.15,277.85L38.87,261.86L48.58,259.2L58.3,249.61L68.02,248.01L77.74,245.35L87.45,240.29L97.17,238.95L106.89,240.29L116.6,237.89L126.32,236.02L136.04,238.42L155.47,229.63L165.19,229.36L174.91,236.29L184.62,234.69L194.34,236.56L204.06,225.64L213.77,225.9L223.49,224.3L233.21,228.3L242.92,233.63L252.64,222.44L262.36,223.77L272.08,217.64L281.79,214.45L301.23,202.46L310.94,193.93L320.66,195.27L330.38,190.74L349.81,185.14L359.53,179.02L369.25,169.16L378.96,164.1L388.68,164.63L398.4,161.43L408.11,156.91L417.83,156.64L427.55,160.64L437.26,163.57L446.98,161.7" style="vector-effect: non-scaling-stroke; fill: none; stroke: rgb(87, 61, 107); stroke-opacity: 1; stroke-width: 2px; opacity: 1;"/></g><g class="points"/><g class="text"/></g></g></g><g class="overplot"/><path class="xlines-above crisp" d="M0,0" style="fill: none;"/><path class="ylines-above crisp" d="M0,0" style="fill: none;"/><g class="overlines-above"/><g class="xaxislayer-above"><g class="xtick"><text text-anchor="middle" x="0" y="438" transform="translate(79.43,0)" style="font-family: 'Helvetica Neue', Arial; font-size: 12px; fill: rgb(84, 86, 91); fill-opacity: 1; white-space: pre; opacity: 1;">Jan</text></g><g class="xtick"><text text-anchor="middle" x="0" y="438" transform="translate(118.3,0)" style="font-family: 'Helvetica Neue', Arial; font-size: 12px; fill: rgb(84, 86, 91); fill-opacity: 1; white-space: pre; opacity: 1;">Feb</text></g><g class="xtick"><text text-anchor="middle" x="0" y="438" transform="translate(157.17000000000002,0)" style="font-family: 'Helvetica Neue', Arial; font-size: 12px; fill: rgb(84, 86, 91); fill-opacity: 1; white-space: pre; opacity: 1;">Mar</text></g><g class="xtick"><text text-anchor="middle" x="0" y="438" transform="translate(196.04,0)" style="font-family: 'Helvetica Neue', Arial; font-size: 12px; fill: rgb(84, 86, 91); fill-opacity: 1; white-space: pre; opacity: 1;">Apr</text></g><g class="xtick"><text text-anchor="middle" x="0" y="438" transform="translate(234.91,0)" style="font-family: 'Helvetica Neue', Arial; font-size: 12px; fill: rgb(84, 86, 91); fill-opacity: 1; white-space: pre; opacity: 1;">May</text></g><g class="xtick"><text text-anchor="middle" x="0" y="438" transform="translate(283.49,0)" style="font-family: 'Helvetica Neue', Arial; font-size: 12px; fill: rgb(84, 86, 91); fill-opacity: 1; white-space: pre; opacity: 1;">Jun</text></g><g class="xtick"><text text-anchor="middle" x="0" y="438" transform="translate(322.36,0)" style="font-family: 'Helvetica Neue', Arial; font-size: 12px; fill: rgb(84, 86, 91); fill-opacity: 1; white-space: pre; opacity: 1;">Jul</text></g><g class="xtick"><text text-anchor="middle" x="0" y="438" transform="translate(361.23,0)" style="font-family: 'Helvetica Neue', Arial; font-size: 12px; fill: rgb(84, 86, 91); fill-opacity: 1; white-space: pre; opacity: 1;">Aug</text></g><g class="xtick"><text text-anchor="middle" x="0" y="438" transform="translate(409.81,0)" style="font-family: 'Helvetica Neue', Arial; font-size: 12px; fill: rgb(84, 86, 91); fill-opacity: 1; white-space: pre; opacity: 1;">Sep</text></g><g class="xtick"><text text-anchor="middle" x="0" y="438" transform="translate(448.68,0)" style="font-family: 'Helvetica Neue', Arial; font-size: 12px; fill: rgb(84, 86, 91); fill-opacity: 1; white-space: pre; opacity: 1;">Oct</text></g><g class="xtick"><text text-anchor="middle" x="0" y="438" transform="translate(497.26,0)" style="font-family: 'Helvetica Neue', Arial; font-size: 12px; fill: rgb(84, 86, 91); fill-opacity: 1; white-space: pre; opacity: 1;">Nov</text></g><g class="xtick"><text text-anchor="middle" x="0" y="438" transform="translate(536.13,0)" style="font-family: 'Helvetica Neue', Arial; font-size: 12px; fill: rgb(84, 86, 91); fill-opacity: 1; white-space: pre; opacity: 1;">Dec</text></g></g><g class="yaxislayer-above"><g class="ytick"><text text-anchor="end" x="59" y="4.199999999999999" transform="translate(0,422.34)" style="font-family: 'Helvetica Neue', Arial; font-size: 12px; fill: rgb(84, 86, 91); fill-opacity: 1; white-space: pre; opacity: 1;">3,000</text></g><g class="ytick"><text text-anchor="end" x="59" y="4.199999999999999" style="font-family: 'Helvetica Neue', Arial; font-size: 12px; fill: rgb(84, 86, 91); fill-opacity: 1; white-space: pre; opacity: 1;" transform="translate(0,369.06)">3,200</text></g><g class="ytick"><text text-anchor="end" x="59" y="4.199999999999999" style="font-family: 'Helvetica Neue', Arial; font-size: 12px; fill: rgb(84, 86, 91); fill-opacity: 1; white-space: pre; opacity: 1;" transform="translate(0,315.78)">3,400</text></g><g class="ytick"><text text-anchor="end" x="59" y="4.199999999999999" style="font-family: 'Helvetica Neue', Arial; font-size: 12px; fill: rgb(84, 86, 91); fill-opacity: 1; white-space: pre; opacity: 1;" transform="translate(0,262.5)">3,600</text></g><g class="ytick"><text text-anchor="end" x="59" y="4.199999999999999" style="font-family: 'Helvetica Neue', Arial; font-size: 12px; fill: rgb(84, 86, 91); fill-opacity: 1; white-space: pre; opacity: 1;" transform="translate(0,209.22)">3,800</text></g><g class="ytick"><text text-anchor="end" x="59" y="4.199999999999999" style="font-family: 'Helvetica Neue', Arial; font-size: 12px; fill: rgb(84, 86, 91); fill-opacity: 1; white-space: pre; opacity: 1;" transform="translate(0,155.94)">4,000</text></g><g class="ytick"><text text-anchor="end" x="59" y="4.199999999999999" style="font-family: 'Helvetica Neue', Arial; font-size: 12px; fill: rgb(84, 86, 91); fill-opacity: 1; white-space: pre; opacity: 1;" transform="translate(0,102.66)">4,200</text></g></g><g class="overaxes-above"/></g></g><g class="polarlayer"/><g class="smithlayer"/><g class="ternarylayer"/><g class="geolayer"/><g class="funnelarealayer"/><g class="pielayer"/><g class="iciclelayer"/><g class="treemaplayer"/><g class="sunburstlayer"/><g class="glimages"/><defs id="topdefs-501722"><g class="clips"/></defs><g class="layer-above"><g class="imagelayer"/><g class="shapelayer"/></g><g class="infolayer"><g class="g-gtitle"><text class="gtitle" x="327.5" y="30" text-anchor="middle" dy="0em" style="font-family: 'Helvetica Neue', Arial; font-size: 17px; fill: rgb(84, 86, 91); opacity: 1; font-weight: normal; white-space: pre;"><tspan style="font-weight:bold">Female prison population in England and Wales</tspan></text></g><g class="g-xtitle"/><g class="g-ytitle"/><g class="annotation" data-index="0" style="opacity: 1;"><g class="annotation-text-g" transform="rotate(0,578.28,224.14)"><g class="cursor-pointer" transform="translate(565,216)"><rect class="bg" x="0.5" y="0.5" width="25" height="15" style="stroke-width: 1px; stroke: rgb(0, 0, 0); stroke-opacity: 0; fill: rgb(0, 0, 0); fill-opacity: 0;"/><text class="annotation-text" text-anchor="start" x="2" y="11.5" style="font-family: 'Helvetica Neue', Arial; font-size: 10px; fill: rgb(160, 29, 40); fill-opacity: 1; white-space: pre;">2019</text></g></g></g><g class="annotation" data-index="1" style="opacity: 1;"><g class="annotation-text-g" transform="rotate(0,568.5699999999999,367.46)"><g class="cursor-pointer" transform="translate(556,359)"><rect class="bg" x="0.5" y="0.5" width="25" height="15" style="stroke-width: 1px; stroke: rgb(0, 0, 0); stroke-opacity: 0; fill: rgb(0, 0, 0); fill-opacity: 0;"/><text class="annotation-text" text-anchor="start" x="2" y="11.5" style="font-family: 'Helvetica Neue', Arial; font-size: 10px; fill: rgb(73, 156, 201); fill-opacity: 1; white-space: pre;">2020</text></g></g></g><g class="annotation" data-index="2" style="opacity: 1;"><g class="annotation-text-g" transform="rotate(0,588,350.40999999999997)"><g class="cursor-pointer" transform="translate(575,342)"><rect class="bg" x="0.5" y="0.5" width="25" height="15" style="stroke-width: 1px; stroke: rgb(0, 0, 0); stroke-opacity: 0; fill: rgb(0, 0, 0); fill-opacity: 0;"/><text class="annotation-text" text-anchor="start" x="2" y="11.5" style="font-family: 'Helvetica Neue', Arial; font-size: 10px; fill: rgb(249, 162, 55); fill-opacity: 1; white-space: pre;">2021</text></g></g></g><g class="annotation" data-index="3" style="opacity: 1;"><g class="annotation-text-g" transform="rotate(0,588,384.77)"><g class="cursor-pointer" transform="translate(575,377)"><rect class="bg" x="0.5" y="0.5" width="25" height="15" style="stroke-width: 1px; stroke: rgb(0, 0, 0); stroke-opacity: 0; fill: rgb(0, 0, 0); fill-opacity: 0;"/><text class="annotation-text" text-anchor="start" x="2" y="11.5" style="font-family: 'Helvetica Neue', Arial; font-size: 10px; fill: rgb(111, 186, 58); fill-opacity: 1; white-space: pre;">2022</text></g></g></g><g class="annotation" data-index="4" style="opacity: 1;"><g class="annotation-text-g" transform="rotate(0,519.98,260.9)"><g class="cursor-pointer" transform="translate(507,253)"><rect class="bg" x="0.5" y="0.5" width="25" height="15" style="stroke-width: 1px; stroke: rgb(0, 0, 0); stroke-opacity: 0; fill: rgb(0, 0, 0); fill-opacity: 0;"/><text class="annotation-text" text-anchor="start" x="2" y="11.5" style="font-family: 'Helvetica Neue', Arial; font-size: 10px; fill: rgb(87, 61, 107); fill-opacity: 1; white-space: pre;">2023</text></g></g></g><g class="annotation" data-index="5" style="opacity: 1;"><g class="annotation-text-g" transform="rotate(0,172.8,477.75)"><g class="cursor-pointer" transform="translate(19,469)"><rect class="bg" x="0.5" y="0.5" width="307" height="17" style="stroke-width: 1px; stroke: rgb(0, 0, 0); stroke-opacity: 0; fill: rgb(0, 0, 0); fill-opacity: 0;"/><text class="annotation-text" text-anchor="start" x="2" y="13.5" style="font-family: 'Helvetica Neue', Arial; font-size: 12px; fill: rgb(84, 86, 91); fill-opacity: 1; white-space: pre;"><tspan style="font-weight:bold">Source: Ministry of Justice Prison Population Bulletin</tspan></text></g></g></g><g class="annotation" data-index="6" style="opacity: 1;"><g class="annotation-text-g" transform="rotate(0,116.72,95.99999999999999)"><g class="cursor-pointer" transform="translate(70,87)"><rect class="bg" x="0.5" y="0.5" width="93" height="17" style="stroke-width: 1px; stroke: rgb(0, 0, 0); stroke-opacity: 0; fill: rgb(0, 0, 0); fill-opacity: 0;"/><text class="annotation-text" text-anchor="start" x="2" y="13.5" style="font-family: 'Helvetica Neue', Arial; font-size: 12px; fill: rgb(84, 86, 91); fill-opacity: 1; white-space: pre;">Women in prison</text></g></g></g></g></svg>