<svg class="main-svg" xmlns="http://www.w3.org/2000/svg" xmlns:xlink="http://www.w3.org/1999/xlink" width="655" height="500" style="" viewBox="0 0 655 500"><rect x="0" y="0" width="655" height="500" style="fill: rgb(247, 242, 242); fill-opacity: 1;"/><defs id="defs-242fe2"><g class="clips"><clipPath id="clip242fe2xyplot" class="plotclip"><rect width="527" height="325"/></clipPath><clipPath class="axesclip" id="clip242fe2x"><rect x="64" y="0" width="527" height="500"/></clipPath><clipPath class="axesclip" id="clip242fe2y"><rect x="0" y="100" width="655" height="325"/></clipPath><clipPath class="axesclip" id="clip242fe2xy"><rect x="64" y="100" width="527" height="325"/></clipPath></g><g class="gradients"/><g class="patterns"/></defs><g class="bglayer"/><g class="layer-below"><g class="imagelayer"/><g class="shapelayer"/></g><g class="cartesianlayer"><g class="subplot xy"><g class="layer-subplot"><g class="shapelayer"/><g class="imagelayer"/></g><g class="minor-gridlayer"><g class="x"/><g class="y"/></g><g class="gridlayer"><g class="x"/><g class="y"><path class="ygrid crisp" transform="translate(0,422.34)" d="M64,0h527" style="stroke: rgb(231, 226, 226); stroke-opacity: 1; stroke-width: 1px;"/><path class="ygrid crisp" transform="translate(0,369.06)" d="M64,0h527" style="stroke: rgb(231, 226, 226); stroke-opacity: 1; stroke-width: 1px;"/><path class="ygrid crisp" transform="translate(0,315.78)" d="M64,0h527" style="stroke: rgb(231, 226, 226); stroke-opacity: 1; stroke-width: 1px;"/><path class="ygrid crisp" transform="translate(0,262.5)" d="M64,0h527" style="stroke: rgb(231, 226, 226); stroke-opacity: 1; stroke-width: 1px;"/><path class="ygrid crisp" transform="translate(0,209.22)" d="M64,0h527" style="stroke: rgb(231, 226, 226); stroke-opacity: 1; stroke-width: 1px;"/><path class="ygrid crisp" transform="translate(0,155.94)" d="M64,0h527" style="stroke: rgb(231, 226, 226); stroke-opacity: 1; stroke-width: 1px;"/><path class="ygrid crisp" transform="translate(0,102.66)" d="M64,0h527" style="stroke: rgb(231, 226, 226); stroke-opacity: 1; stroke-width: 1px;"/></g></g><g class="zerolinelayer"/><path class="xlines-below"/><path class="ylines-below"/><g class="overlines-below"/><g class="xaxislayer-below"/><g class="yaxislayer-below"/><g class="overaxes-below"/><g class="plot" transform="translate(64,100)" clip-path="url(#clip242fe2xyplot)"><g class="scatterlayer mlayer"><g class="trace scatter tracee411eb" style="stroke-miterlimit: 2; opacity: 1;"><g class="fills"/><g class="errorbars"/><g class="lines"><path class="js-line" d="M0,139.06L10.33,139.59L20.67,134L31,136.66L41.33,131.07L51.67,132.13L62,135.33L72.33,134.53L82.67,130.27L103.33,131.6L113.67,134.53L124,151.58L134.33,162.5L155,198.46L165.33,209.39L175.67,213.91L196.33,234.69L206.67,236.56L217,243.22L227.33,254.41L237.67,252.01L248,251.74L258.33,254.94L268.67,256.8L279,256L289.33,261.33L299.67,261.86L310,259.73L320.33,258.67L330.67,252.54L341,252.54L351.33,253.34L361.67,255.2L372,259.2L382.33,268.52L392.67,265.59L403,264.53L413.33,257.07L423.67,253.87L434,255.47L444.33,253.87L454.67,252.27L465,247.75L475.33,253.61L485.67,255.47L496,258.93L506.33,260.8L516.67,269.86" style="vector-effect: non-scaling-stroke; fill: none; stroke: rgb(160, 29, 40); stroke-opacity: 1; stroke-width: 2px; opacity: 1;"/></g><g class="points"/><g class="text"/></g><g class="trace scatter trace22ff5b" style="stroke-miterlimit: 2; opacity: 1;"><g class="fills"/><g class="errorbars"/><g class="lines"><path class="js-line" d="M0,287.7L10.33,287.7L20.67,282.91L31,288.77L41.33,287.17L51.67,292.77L62,286.64L72.33,286.91L82.67,290.1L93,291.17L103.33,296.23L113.67,295.7L134.33,299.43L144.67,291.7L155,286.37L165.33,280.51L175.67,280.25L186,279.45L196.33,274.65L206.67,273.59L217,277.05L258.33,271.72L268.67,268.52L279,266.93L289.33,269.59L299.67,268.52L310,268.52L320.33,263.73L330.67,262.4L341,271.19L351.33,274.12L361.67,274.65L372,269.86L382.33,272.79L392.67,269.32L403,264.53L413.33,261.86L423.67,257.34L434,256.54L444.33,260.53L454.67,262.13L465,259.47L475.33,249.34L485.67,245.61L496,248.01L506.33,249.61L516.67,262.4L527,266.13" style="vector-effect: non-scaling-stroke; fill: none; stroke: rgb(73, 156, 201); stroke-opacity: 1; stroke-width: 2px; opacity: 1;"/></g><g class="points"/><g class="text"/></g><g class="trace scatter trace3f2408" style="stroke-miterlimit: 2; opacity: 1;"><g class="fills"/><g class="errorbars"/><g class="lines"><path class="js-line" d="M0,272.79L10.33,271.19L20.67,268.79L31,267.73L41.33,270.12L51.67,262.4L62,264.53L72.33,268.52L82.67,266.66L93,260L103.33,258.93L113.67,258.14L124,258.4L155,271.99L165.33,269.32L175.67,260.8L186,261.07L196.33,263.46L206.67,265.06L227.33,274.12L237.67,267.99L248,259.73L258.33,255.2L268.67,264.26L279,264L289.33,270.39L299.67,267.46L320.33,265.59L330.67,267.73L341,268.26L351.33,276.78L361.67,275.72L372,262.93L382.33,272.52L392.67,274.65L403,276.52L413.33,262.4L423.67,257.87L434,260L444.33,268.52L454.67,263.46L465,256.54L475.33,254.67L485.67,261.07L496,263.2L516.67,276.78L527,285.04" style="vector-effect: non-scaling-stroke; fill: none; stroke: rgb(249, 162, 55); stroke-opacity: 1; stroke-width: 2px; opacity: 1;"/></g><g class="points"/><g class="text"/></g><g class="trace scatter trace53ba4b" style="stroke-miterlimit: 2; opacity: 1;"><g class="fills"/><g class="errorbars"/><g class="lines"><path class="js-line" d="M0,286.11L10.33,277.85L20.67,261.86L31,259.2L41.33,249.61L51.67,248.01L62,245.35L72.33,240.29L82.67,238.95L93,240.29L103.33,237.89L113.67,236.02L124,238.42L144.67,229.63L155,229.36L165.33,236.29L175.67,234.69L186,236.56L196.33,225.64L206.67,225.9L217,224.3L227.33,228.3L237.67,233.63L248,222.44L258.33,223.77L268.67,217.64L279,214.45L299.67,202.46L310,193.93L320.33,195.27L330.67,190.74L351.33,185.14L361.67,179.02L372,169.16L382.33,164.1L392.67,164.63L403,161.43L413.33,156.91L423.67,156.64L434,160.64L444.33,163.57L454.67,161.7L465,163.83L475.33,160.1L485.67,159.3L496,168.89L506.33,171.82L516.67,180.88L527,170.23" style="vector-effect: non-scaling-stroke; fill: none; stroke: rgb(111, 186, 58); stroke-opacity: 1; stroke-width: 2px; opacity: 1;"/></g><g class="points"/><g class="text"/></g><g class="trace scatter trace1928cb" style="stroke-miterlimit: 2; opacity: 1;"><g class="fills"/><g class="errorbars"/><g class="lines"><path class="js-line" d="M0,165.43L10.33,164.36L20.67,172.62L31,172.62" style="vector-effect: non-scaling-stroke; fill: none; stroke: rgb(87, 61, 107); stroke-opacity: 1; stroke-width: 2px; opacity: 1;"/></g><g class="points"/><g class="text"/></g></g></g><g class="overplot"/><path class="xlines-above crisp" d="M0,0" style="fill: none;"/><path class="ylines-above crisp" d="M0,0" style="fill: none;"/><g class="overlines-above"/><g class="xaxislayer-above"><g class="xtick"><text text-anchor="middle" x="0" y="448" transform="translate(64,0)" style="font-family: 'Helvetica Neue', Arial; font-size: 12px; fill: rgb(84, 86, 91); fill-opacity: 1; white-space: pre; opacity: 1;">Jan</text></g><g class="xtick"><text text-anchor="middle" x="0" y="448" style="font-family: 'Helvetica Neue', Arial; font-size: 12px; fill: rgb(84, 86, 91); fill-opacity: 1; white-space: pre; opacity: 1;" transform="translate(105.33,0)">Feb</text></g><g class="xtick"><text text-anchor="middle" x="0" y="448" style="font-family: 'Helvetica Neue', Arial; font-size: 12px; fill: rgb(84, 86, 91); fill-opacity: 1; white-space: pre; opacity: 1;" transform="translate(146.67000000000002,0)">Mar</text></g><g class="xtick"><text text-anchor="middle" x="0" y="448" style="font-family: 'Helvetica Neue', Arial; font-size: 12px; fill: rgb(84, 86, 91); fill-opacity: 1; white-space: pre; opacity: 1;" transform="translate(188,0)">Apr</text></g><g class="xtick"><text text-anchor="middle" x="0" y="448" style="font-family: 'Helvetica Neue', Arial; font-size: 12px; fill: rgb(84, 86, 91); fill-opacity: 1; white-space: pre; opacity: 1;" transform="translate(239.67,0)">May</text></g><g class="xtick"><text text-anchor="middle" x="0" y="448" style="font-family: 'Helvetica Neue', Arial; font-size: 12px; fill: rgb(84, 86, 91); fill-opacity: 1; white-space: pre; opacity: 1;" transform="translate(281,0)">Jun</text></g><g class="xtick"><text text-anchor="middle" x="0" y="448" style="font-family: 'Helvetica Neue', Arial; font-size: 12px; fill: rgb(84, 86, 91); fill-opacity: 1; white-space: pre; opacity: 1;" transform="translate(322.33,0)">Jul</text></g><g class="xtick"><text text-anchor="middle" x="0" y="448" style="font-family: 'Helvetica Neue', Arial; font-size: 12px; fill: rgb(84, 86, 91); fill-opacity: 1; white-space: pre; opacity: 1;" transform="translate(374,0)">Aug</text></g><g class="xtick"><text text-anchor="middle" x="0" y="448" style="font-family: 'Helvetica Neue', Arial; font-size: 12px; fill: rgb(84, 86, 91); fill-opacity: 1; white-space: pre; opacity: 1;" transform="translate(415.33,0)">Sep</text></g><g class="xtick"><text text-anchor="middle" x="0" y="448" style="font-family: 'Helvetica Neue', Arial; font-size: 12px; fill: rgb(84, 86, 91); fill-opacity: 1; white-space: pre; opacity: 1;" transform="translate(467,0)">Oct</text></g><g class="xtick"><text text-anchor="middle" x="0" y="448" style="font-family: 'Helvetica Neue', Arial; font-size: 12px; fill: rgb(84, 86, 91); fill-opacity: 1; white-space: pre; opacity: 1;" transform="translate(508.33,0)">Nov</text></g><g class="xtick"><text text-anchor="middle" x="0" y="448" style="font-family: 'Helvetica Neue', Arial; font-size: 12px; fill: rgb(84, 86, 91); fill-opacity: 1; white-space: pre; opacity: 1;" transform="translate(549.6700000000001,0)">Dec</text></g></g><g class="yaxislayer-above"><g class="ytick"><text text-anchor="end" x="53" y="4.199999999999999" transform="translate(0,422.34)" style="font-family: 'Helvetica Neue', Arial; font-size: 12px; fill: rgb(84, 86, 91); fill-opacity: 1; white-space: pre; opacity: 1;">3,000</text></g><g class="ytick"><text text-anchor="end" x="53" y="4.199999999999999" style="font-family: 'Helvetica Neue', Arial; font-size: 12px; fill: rgb(84, 86, 91); fill-opacity: 1; white-space: pre; opacity: 1;" transform="translate(0,369.06)">3,200</text></g><g class="ytick"><text text-anchor="end" x="53" y="4.199999999999999" style="font-family: 'Helvetica Neue', Arial; font-size: 12px; fill: rgb(84, 86, 91); fill-opacity: 1; white-space: pre; opacity: 1;" transform="translate(0,315.78)">3,400</text></g><g class="ytick"><text text-anchor="end" x="53" y="4.199999999999999" style="font-family: 'Helvetica Neue', Arial; font-size: 12px; fill: rgb(84, 86, 91); fill-opacity: 1; white-space: pre; opacity: 1;" transform="translate(0,262.5)">3,600</text></g><g class="ytick"><text text-anchor="end" x="53" y="4.199999999999999" style="font-family: 'Helvetica Neue', Arial; font-size: 12px; fill: rgb(84, 86, 91); fill-opacity: 1; white-space: pre; opacity: 1;" transform="translate(0,209.22)">3,800</text></g><g class="ytick"><text text-anchor="end" x="53" y="4.199999999999999" style="font-family: 'Helvetica Neue', Arial; font-size: 12px; fill: rgb(84, 86, 91); fill-opacity: 1; white-space: pre; opacity: 1;" transform="translate(0,155.94)">4,000</text></g><g class="ytick"><text text-anchor="end" x="53" y="4.199999999999999" style="font-family: 'Helvetica Neue', Arial; font-size: 12px; fill: rgb(84, 86, 91); fill-opacity: 1; white-space: pre; opacity: 1;" transform="translate(0,102.66)">4,200</text></g></g><g class="overaxes-above"/></g></g><g class="polarlayer"/><g class="smithlayer"/><g class="ternarylayer"/><g class="geolayer"/><g class="funnelarealayer"/><g class="pielayer"/><g class="iciclelayer"/><g class="treemaplayer"/><g class="sunburstlayer"/><g class="glimages"/><defs id="topdefs-242fe2"><g class="clips"/></defs><g class="layer-above"><g class="imagelayer"/><g class="shapelayer"/></g><g class="infolayer"><g class="g-gtitle"><text class="gtitle" x="327.5" y="30" text-anchor="middle" dy="0em" style="font-family: 'Helvetica Neue', Arial; font-size: 17px; fill: rgb(84, 86, 91); opacity: 1; font-weight: normal; white-space: pre;"><tspan style="font-weight:bold">Female prison population in England and Wales</tspan></text></g><g class="g-xtitle"/><g class="g-ytitle"/><g class="annotation" data-index="0" style="opacity: 1;"><g class="annotation-text-g" transform="rotate(0,604,369.86)"><g class="cursor-pointer" transform="translate(591,362)"><rect class="bg" x="0.5" y="0.5" width="25" height="15" style="stroke-width: 1px; stroke: rgb(0, 0, 0); stroke-opacity: 0; fill: rgb(0, 0, 0); fill-opacity: 0;"/><text class="annotation-text" text-anchor="start" x="2" y="11.5" style="font-family: 'Helvetica Neue', Arial; font-size: 10px; fill: rgb(160, 29, 40); fill-opacity: 1; white-space: pre;">2020</text></g></g></g><g class="annotation" data-index="1" style="opacity: 1;"><g class="annotation-text-g" transform="rotate(0,604,355.47)"><g class="cursor-pointer" transform="translate(591,347)"><rect class="bg" x="0.5" y="0.5" width="25" height="15" style="stroke-width: 1px; stroke: rgb(0, 0, 0); stroke-opacity: 0; fill: rgb(0, 0, 0); fill-opacity: 0;"/><text class="annotation-text" text-anchor="start" x="2" y="11.5" style="font-family: 'Helvetica Neue', Arial; font-size: 10px; fill: rgb(73, 156, 201); fill-opacity: 1; white-space: pre;">2021</text></g></g></g><g class="annotation" data-index="2" style="opacity: 1;"><g class="annotation-text-g" transform="rotate(0,604,385.04)"><g class="cursor-pointer" transform="translate(591,377)"><rect class="bg" x="0.5" y="0.5" width="25" height="15" style="stroke-width: 1px; stroke: rgb(0, 0, 0); stroke-opacity: 0; fill: rgb(0, 0, 0); fill-opacity: 0;"/><text class="annotation-text" text-anchor="start" x="2" y="11.5" style="font-family: 'Helvetica Neue', Arial; font-size: 10px; fill: rgb(249, 162, 55); fill-opacity: 1; white-space: pre;">2022</text></g></g></g><g class="annotation" data-index="3" style="opacity: 1;"><g class="annotation-text-g" transform="rotate(0,604,270.23)"><g class="cursor-pointer" transform="translate(591,262)"><rect class="bg" x="0.5" y="0.5" width="25" height="15" style="stroke-width: 1px; stroke: rgb(0, 0, 0); stroke-opacity: 0; fill: rgb(0, 0, 0); fill-opacity: 0;"/><text class="annotation-text" text-anchor="start" x="2" y="11.5" style="font-family: 'Helvetica Neue', Arial; font-size: 10px; fill: rgb(111, 186, 58); fill-opacity: 1; white-space: pre;">2023</text></g></g></g><g class="annotation" data-index="4" style="opacity: 1;"><g class="annotation-text-g" transform="rotate(0,108,272.62)"><g class="cursor-pointer" transform="translate(95,265)"><rect class="bg" x="0.5" y="0.5" width="25" height="15" style="stroke-width: 1px; stroke: rgb(0, 0, 0); stroke-opacity: 0; fill: rgb(0, 0, 0); fill-opacity: 0;"/><text class="annotation-text" text-anchor="start" x="2" y="11.5" style="font-family: 'Helvetica Neue', Arial; font-size: 10px; fill: rgb(87, 61, 107); fill-opacity: 1; white-space: pre;">2024</text></g></g></g><g class="annotation" data-index="5" style="opacity: 1;"><g class="annotation-text-g" transform="rotate(0,175.84,477.75)"><g class="cursor-pointer" transform="translate(22,469)"><rect class="bg" x="0.5" y="0.5" width="307" height="17" style="stroke-width: 1px; stroke: rgb(0, 0, 0); stroke-opacity: 0; fill: rgb(0, 0, 0); fill-opacity: 0;"/><text class="annotation-text" text-anchor="start" x="2" y="13.5" style="font-family: 'Helvetica Neue', Arial; font-size: 12px; fill: rgb(84, 86, 91); fill-opacity: 1; white-space: pre;"><tspan style="font-weight:bold">Source: Ministry of Justice Prison Population Bulletin</tspan></text></g></g></g><g class="annotation" data-index="6" style="opacity: 1;"><g class="annotation-text-g" transform="rotate(0,111,95.99999999999999)"><g class="cursor-pointer" transform="translate(64,87)"><rect class="bg" x="0.5" y="0.5" width="93" height="17" style="stroke-width: 1px; stroke: rgb(0, 0, 0); stroke-opacity: 0; fill: rgb(0, 0, 0); fill-opacity: 0;"/><text class="annotation-text" text-anchor="start" x="2" y="13.5" style="font-family: 'Helvetica Neue', Arial; font-size: 12px; fill: rgb(84, 86, 91); fill-opacity: 1; white-space: pre;">Women in prison</text></g></g></g></g></svg>