<svg class="main-svg" xmlns="http://www.w3.org/2000/svg" xmlns:xlink="http://www.w3.org/1999/xlink" width="655" height="500" style="" viewBox="0 0 655 500"><rect x="0" y="0" width="655" height="500" style="fill: rgb(247, 242, 242); fill-opacity: 1;"/><defs id="defs-58d4a2"><g class="clips"><clipPath id="clip58d4a2xyplot" class="plotclip"><rect width="515" height="325"/></clipPath><clipPath class="axesclip" id="clip58d4a2x"><rect x="60" y="0" width="515" height="500"/></clipPath><clipPath class="axesclip" id="clip58d4a2y"><rect x="0" y="100" width="655" height="325"/></clipPath><clipPath class="axesclip" id="clip58d4a2xy"><rect x="60" y="100" width="515" height="325"/></clipPath></g><g class="gradients"/><g class="patterns"/></defs><g class="bglayer"/><g class="layer-below"><g class="imagelayer"/><g class="shapelayer"/></g><g class="cartesianlayer"><g class="subplot xy"><g class="layer-subplot"><g class="shapelayer"/><g class="imagelayer"/></g><g class="minor-gridlayer"><g class="x"/><g class="y"/></g><g class="gridlayer"><g class="x"/><g class="y"><path class="ygrid crisp" transform="translate(0,379.23)" d="M60,0h515" style="stroke: rgb(231, 226, 226); stroke-opacity: 1; stroke-width: 1px;"/><path class="ygrid crisp" transform="translate(0,333.45)" d="M60,0h515" style="stroke: rgb(231, 226, 226); stroke-opacity: 1; stroke-width: 1px;"/><path class="ygrid crisp" transform="translate(0,287.68)" d="M60,0h515" style="stroke: rgb(231, 226, 226); stroke-opacity: 1; stroke-width: 1px;"/><path class="ygrid crisp" transform="translate(0,241.9)" d="M60,0h515" style="stroke: rgb(231, 226, 226); stroke-opacity: 1; stroke-width: 1px;"/><path class="ygrid crisp" transform="translate(0,196.13)" d="M60,0h515" style="stroke: rgb(231, 226, 226); stroke-opacity: 1; stroke-width: 1px;"/><path class="ygrid crisp" transform="translate(0,150.35)" d="M60,0h515" style="stroke: rgb(231, 226, 226); stroke-opacity: 1; stroke-width: 1px;"/><path class="ygrid crisp" transform="translate(0,104.58)" d="M60,0h515" style="stroke: rgb(231, 226, 226); stroke-opacity: 1; stroke-width: 1px;"/></g></g><g class="zerolinelayer"><path class="yzl zl crisp" transform="translate(0,425)" d="M60,0h515" style="stroke: rgb(68, 68, 68); stroke-opacity: 1; stroke-width: 1px;"/></g><path class="xlines-below"/><path class="ylines-below"/><g class="overlines-below"/><g class="xaxislayer-below"/><g class="yaxislayer-below"/><g class="overaxes-below"/><g class="plot" transform="translate(60,100)" clip-path="url(#clip58d4a2xyplot)"><g class="scatterlayer mlayer"><g class="trace scatter tracefc65e9" style="stroke-miterlimit: 2; opacity: 1;"><g class="fills"/><g class="errorbars"/><g class="lines"><path class="js-line" d="M9.72,72.42L19.43,75.44L29.15,74.06L38.87,77.54L48.58,78L68.02,76.35L77.74,79.28L87.45,76.08L97.17,75.44L106.89,76.17L116.6,74.98L126.32,78.46L136.04,79.56L155.47,80.75L165.19,77.91L174.91,77.91L194.34,80.01L204.06,81.85L213.77,85.23L233.21,82.67L242.92,79.19L252.64,82.49L262.36,82.39L272.08,81.57L281.79,84.32L301.23,87.98L310.94,88.99L320.66,91.92L330.38,92.19L340.09,91.37L349.81,93.93L359.53,95.94L369.25,95.21L378.96,96.13L388.68,95.49L398.4,96.49L408.11,100.15L417.83,96.95L427.55,97.5L437.26,98.14L446.98,99.88L456.7,103.63L466.42,102.99L476.13,103.45L485.85,102.44L495.57,104.18" style="vector-effect: non-scaling-stroke; fill: none; stroke: rgb(73, 156, 201); stroke-opacity: 1; stroke-width: 2px; opacity: 1;"/></g><g class="points"/><g class="text"/></g><g class="trace scatter trace305564" style="stroke-miterlimit: 2; opacity: 1;"><g class="fills"/><g class="errorbars"/><g class="lines"><path class="js-line" d="M19.43,110.59L29.15,112.42L38.87,115.81L48.58,117L58.3,116.63L77.74,119.47L87.45,119.38L106.89,114.62L116.6,119.11L126.32,120.02L145.75,117.46L155.47,120.2L165.19,119.38L174.91,116.82L184.62,120.66L194.34,125.88L204.06,123.87L223.49,125.06L233.21,126.52L262.36,123.5L272.08,127.71L281.79,132.01L291.51,128.08L301.23,125.7L310.94,126.15L320.66,123.77L330.38,122.49L340.09,120.3L349.81,122.68L359.53,125.97L369.25,126.61L388.68,127.25L398.4,125.06L417.83,126.06L427.55,126.34L437.26,122.13L446.98,119.75L456.7,121.85L466.42,124.78L476.13,121.94L485.85,123.59L505.28,120.3L515,121.49" style="vector-effect: non-scaling-stroke; fill: none; stroke: rgb(249, 162, 55); stroke-opacity: 1; stroke-width: 2px; opacity: 1;"/></g><g class="points"/><g class="text"/></g><g class="trace scatter trace4e5853" style="stroke-miterlimit: 2; opacity: 1;"><g class="fills"/><g class="errorbars"/><g class="lines"><path class="js-line" d="M19.43,124.42L29.15,127.99L38.87,128.99L48.58,128.72L58.3,126.8L68.02,124.51L77.74,126.61L87.45,126.7L97.17,128.9L116.6,130.09L126.32,126.8L145.75,125.24L165.19,127.35L174.91,128.26L184.62,130.37L194.34,130.82L204.06,132.38L213.77,132.2L233.21,134.39L242.92,136.59L252.64,135.04L262.36,131.46L272.08,130.46L281.79,129.08L291.51,129.27L320.66,129.18L330.38,130.82L340.09,132.84L349.81,132.38L359.53,132.93L369.25,135.4L388.68,136.87L398.4,138.42L408.11,142.27L417.83,142.08L427.55,143.27L437.26,143L446.98,142.54L456.7,144.28L476.13,145.11L485.85,148.04L495.57,146.3L505.28,143.46L515,146.02" style="vector-effect: non-scaling-stroke; fill: none; stroke: rgb(111, 186, 58); stroke-opacity: 1; stroke-width: 2px; opacity: 1;"/></g><g class="points"/><g class="text"/></g><g class="trace scatter trace1ced73" style="stroke-miterlimit: 2; opacity: 1;"><g class="fills"/><g class="errorbars"/><g class="lines"><path class="js-line" d="M19.43,150.78L29.15,151.06L38.87,152.43L58.3,157.19L68.02,156.09L87.45,158.29L97.17,155.91L106.89,156.73L116.6,154.81L136.04,154.54L155.47,159.02L165.19,158.47L174.91,159.39L184.62,157.65L194.34,160.12L204.06,160.76L213.77,160.03L223.49,158.38L233.21,136.5L242.92,131.92L252.64,131.19L272.08,130.55L281.79,132.75L291.51,134.67L301.23,135.31L310.94,137.6L320.66,135.22L330.38,136.59L340.09,135.68L349.81,136.32L359.53,139.43L369.25,139.61L378.96,141.26L398.4,139.89L408.11,137.42L417.83,134.76L427.55,130.27L437.26,125.7L446.98,124.69" style="vector-effect: non-scaling-stroke; fill: none; stroke: rgb(87, 61, 107); stroke-opacity: 1; stroke-width: 2px; opacity: 1;"/></g><g class="points"/><g class="text"/></g></g></g><g class="overplot"/><path class="xlines-above crisp" d="M0,0" style="fill: none;"/><path class="ylines-above crisp" d="M0,0" style="fill: none;"/><g class="overlines-above"/><g class="xaxislayer-above"><g class="xtick"><text text-anchor="middle" x="0" y="438" transform="translate(79.43,0)" style="font-family: 'Helvetica Neue', Arial; font-size: 12px; fill: rgb(84, 86, 91); fill-opacity: 1; white-space: pre; opacity: 1;">Jan</text></g><g class="xtick"><text text-anchor="middle" x="0" y="438" transform="translate(118.3,0)" style="font-family: 'Helvetica Neue', Arial; font-size: 12px; fill: rgb(84, 86, 91); fill-opacity: 1; white-space: pre; opacity: 1;">Feb</text></g><g class="xtick"><text text-anchor="middle" x="0" y="438" transform="translate(157.17000000000002,0)" style="font-family: 'Helvetica Neue', Arial; font-size: 12px; fill: rgb(84, 86, 91); fill-opacity: 1; white-space: pre; opacity: 1;">Mar</text></g><g class="xtick"><text text-anchor="middle" x="0" y="438" transform="translate(196.04,0)" style="font-family: 'Helvetica Neue', Arial; font-size: 12px; fill: rgb(84, 86, 91); fill-opacity: 1; white-space: pre; opacity: 1;">Apr</text></g><g class="xtick"><text text-anchor="middle" x="0" y="438" transform="translate(234.91,0)" style="font-family: 'Helvetica Neue', Arial; font-size: 12px; fill: rgb(84, 86, 91); fill-opacity: 1; white-space: pre; opacity: 1;">May</text></g><g class="xtick"><text text-anchor="middle" x="0" y="438" transform="translate(283.49,0)" style="font-family: 'Helvetica Neue', Arial; font-size: 12px; fill: rgb(84, 86, 91); fill-opacity: 1; white-space: pre; opacity: 1;">Jun</text></g><g class="xtick"><text text-anchor="middle" x="0" y="438" transform="translate(322.36,0)" style="font-family: 'Helvetica Neue', Arial; font-size: 12px; fill: rgb(84, 86, 91); fill-opacity: 1; white-space: pre; opacity: 1;">Jul</text></g><g class="xtick"><text text-anchor="middle" x="0" y="438" transform="translate(370.94,0)" style="font-family: 'Helvetica Neue', Arial; font-size: 12px; fill: rgb(84, 86, 91); fill-opacity: 1; white-space: pre; opacity: 1;">Aug</text></g><g class="xtick"><text text-anchor="middle" x="0" y="438" transform="translate(409.81,0)" style="font-family: 'Helvetica Neue', Arial; font-size: 12px; fill: rgb(84, 86, 91); fill-opacity: 1; white-space: pre; opacity: 1;">Sep</text></g><g class="xtick"><text text-anchor="middle" x="0" y="438" transform="translate(448.68,0)" style="font-family: 'Helvetica Neue', Arial; font-size: 12px; fill: rgb(84, 86, 91); fill-opacity: 1; white-space: pre; opacity: 1;">Oct</text></g><g class="xtick"><text text-anchor="middle" x="0" y="438" transform="translate(497.26,0)" style="font-family: 'Helvetica Neue', Arial; font-size: 12px; fill: rgb(84, 86, 91); fill-opacity: 1; white-space: pre; opacity: 1;">Nov</text></g><g class="xtick"><text text-anchor="middle" x="0" y="438" transform="translate(536.13,0)" style="font-family: 'Helvetica Neue', Arial; font-size: 12px; fill: rgb(84, 86, 91); fill-opacity: 1; white-space: pre; opacity: 1;">Dec</text></g></g><g class="yaxislayer-above"><g class="ytick"><text text-anchor="end" x="59" y="4.199999999999999" transform="translate(0,425)" style="font-family: 'Helvetica Neue', Arial; font-size: 12px; fill: rgb(84, 86, 91); fill-opacity: 1; white-space: pre; opacity: 1;">0</text></g><g class="ytick"><text text-anchor="end" x="59" y="4.199999999999999" style="font-family: 'Helvetica Neue', Arial; font-size: 12px; fill: rgb(84, 86, 91); fill-opacity: 1; white-space: pre; opacity: 1;" transform="translate(0,379.23)">500</text></g><g class="ytick"><text text-anchor="end" x="59" y="4.199999999999999" style="font-family: 'Helvetica Neue', Arial; font-size: 12px; fill: rgb(84, 86, 91); fill-opacity: 1; white-space: pre; opacity: 1;" transform="translate(0,333.45)">1,000</text></g><g class="ytick"><text text-anchor="end" x="59" y="4.199999999999999" style="font-family: 'Helvetica Neue', Arial; font-size: 12px; fill: rgb(84, 86, 91); fill-opacity: 1; white-space: pre; opacity: 1;" transform="translate(0,287.68)">1,500</text></g><g class="ytick"><text text-anchor="end" x="59" y="4.199999999999999" style="font-family: 'Helvetica Neue', Arial; font-size: 12px; fill: rgb(84, 86, 91); fill-opacity: 1; white-space: pre; opacity: 1;" transform="translate(0,241.9)">2,000</text></g><g class="ytick"><text text-anchor="end" x="59" y="4.199999999999999" style="font-family: 'Helvetica Neue', Arial; font-size: 12px; fill: rgb(84, 86, 91); fill-opacity: 1; white-space: pre; opacity: 1;" transform="translate(0,196.13)">2,500</text></g><g class="ytick"><text text-anchor="end" x="59" y="4.199999999999999" style="font-family: 'Helvetica Neue', Arial; font-size: 12px; fill: rgb(84, 86, 91); fill-opacity: 1; white-space: pre; opacity: 1;" transform="translate(0,150.35)">3,000</text></g><g class="ytick"><text text-anchor="end" x="59" y="4.199999999999999" style="font-family: 'Helvetica Neue', Arial; font-size: 12px; fill: rgb(84, 86, 91); fill-opacity: 1; white-space: pre; opacity: 1;" transform="translate(0,104.58)">3,500</text></g></g><g class="overaxes-above"/></g></g><g class="polarlayer"/><g class="smithlayer"/><g class="ternarylayer"/><g class="geolayer"/><g class="funnelarealayer"/><g class="pielayer"/><g class="iciclelayer"/><g class="treemaplayer"/><g class="sunburstlayer"/><g class="glimages"/><defs id="topdefs-58d4a2"><g class="clips"/></defs><g class="layer-above"><g class="imagelayer"/><g class="shapelayer"/></g><g class="infolayer"><g class="g-gtitle"><text class="gtitle" x="327.5" y="30" text-anchor="middle" dy="0em" style="font-family: 'Helvetica Neue', Arial; font-size: 17px; fill: rgb(84, 86, 91); opacity: 1; font-weight: normal; white-space: pre;"><tspan style="font-weight:bold">HDC population in England and Wales</tspan></text></g><g class="g-xtitle"/><g class="g-ytitle"/><g class="annotation" data-index="0" style="opacity: 1;"><g class="annotation-text-g" transform="rotate(0,568.5699999999999,202.44)"><g class="cursor-pointer" transform="translate(556,194)"><rect class="bg" x="0.5" y="0.5" width="25" height="15" style="stroke-width: 1px; stroke: rgb(0, 0, 0); stroke-opacity: 0; fill: rgb(0, 0, 0); fill-opacity: 0;"/><text class="annotation-text" text-anchor="start" x="2" y="11.5" style="font-family: 'Helvetica Neue', Arial; font-size: 10px; fill: rgb(73, 156, 201); fill-opacity: 1; white-space: pre;">2020</text></g></g></g><g class="annotation" data-index="1" style="opacity: 1;"><g class="annotation-text-g" transform="rotate(0,588,220.3)"><g class="cursor-pointer" transform="translate(575,212)"><rect class="bg" x="0.5" y="0.5" width="25" height="15" style="stroke-width: 1px; stroke: rgb(0, 0, 0); stroke-opacity: 0; fill: rgb(0, 0, 0); fill-opacity: 0;"/><text class="annotation-text" text-anchor="start" x="2" y="11.5" style="font-family: 'Helvetica Neue', Arial; font-size: 10px; fill: rgb(249, 162, 55); fill-opacity: 1; white-space: pre;">2021</text></g></g></g><g class="annotation" data-index="2" style="opacity: 1;"><g class="annotation-text-g" transform="rotate(0,588,243.46)"><g class="cursor-pointer" transform="translate(575,235)"><rect class="bg" x="0.5" y="0.5" width="25" height="15" style="stroke-width: 1px; stroke: rgb(0, 0, 0); stroke-opacity: 0; fill: rgb(0, 0, 0); fill-opacity: 0;"/><text class="annotation-text" text-anchor="start" x="2" y="11.5" style="font-family: 'Helvetica Neue', Arial; font-size: 10px; fill: rgb(111, 186, 58); fill-opacity: 1; white-space: pre;">2022</text></g></g></g><g class="annotation" data-index="3" style="opacity: 1;"><g class="annotation-text-g" transform="rotate(0,519.98,225.7)"><g class="cursor-pointer" transform="translate(507,218)"><rect class="bg" x="0.5" y="0.5" width="25" height="15" style="stroke-width: 1px; stroke: rgb(0, 0, 0); stroke-opacity: 0; fill: rgb(0, 0, 0); fill-opacity: 0;"/><text class="annotation-text" text-anchor="start" x="2" y="11.5" style="font-family: 'Helvetica Neue', Arial; font-size: 10px; fill: rgb(87, 61, 107); fill-opacity: 1; white-space: pre;">2023</text></g></g></g><g class="annotation" data-index="4" style="opacity: 1;"><g class="annotation-text-g" transform="rotate(0,172.8,477.75)"><g class="cursor-pointer" transform="translate(19,469)"><rect class="bg" x="0.5" y="0.5" width="307" height="17" style="stroke-width: 1px; stroke: rgb(0, 0, 0); stroke-opacity: 0; fill: rgb(0, 0, 0); fill-opacity: 0;"/><text class="annotation-text" text-anchor="start" x="2" y="13.5" style="font-family: 'Helvetica Neue', Arial; font-size: 12px; fill: rgb(84, 86, 91); fill-opacity: 1; white-space: pre;"><tspan style="font-weight:bold">Source: Ministry of Justice Prison Population Bulletin</tspan></text></g></g></g><g class="annotation" data-index="5" style="opacity: 1;"><g class="annotation-text-g" transform="rotate(0,143.22,95.99999999999999)"><g class="cursor-pointer" transform="translate(70,87)"><rect class="bg" x="0.5" y="0.5" width="146" height="17" style="stroke-width: 1px; stroke: rgb(0, 0, 0); stroke-opacity: 0; fill: rgb(0, 0, 0); fill-opacity: 0;"/><text class="annotation-text" text-anchor="start" x="2" y="13.5" style="font-family: 'Helvetica Neue', Arial; font-size: 12px; fill: rgb(84, 86, 91); fill-opacity: 1; white-space: pre;">Number of people on HDC</text></g></g></g></g></svg>