<svg class="main-svg" xmlns="http://www.w3.org/2000/svg" xmlns:xlink="http://www.w3.org/1999/xlink" width="655" height="500" style="" viewBox="0 0 655 500"><rect x="0" y="0" width="655" height="500" style="fill: rgb(247, 242, 242); fill-opacity: 1;"/><defs id="defs-b8be4f"><g class="clips"><clipPath id="clipb8be4fxyplot" class="plotclip"><rect width="527" height="325"/></clipPath><clipPath class="axesclip" id="clipb8be4fx"><rect x="64" y="0" width="527" height="500"/></clipPath><clipPath class="axesclip" id="clipb8be4fy"><rect x="0" y="100" width="655" height="325"/></clipPath><clipPath class="axesclip" id="clipb8be4fxy"><rect x="64" y="100" width="527" height="325"/></clipPath></g><g class="gradients"/><g class="patterns"/></defs><g class="bglayer"/><g class="layer-below"><g class="imagelayer"/><g class="shapelayer"/></g><g class="cartesianlayer"><g class="subplot xy"><g class="layer-subplot"><g class="shapelayer"/><g class="imagelayer"/></g><g class="minor-gridlayer"><g class="x"/><g class="y"/></g><g class="gridlayer"><g class="x"/><g class="y"><path class="ygrid crisp" transform="translate(0,379.23)" d="M64,0h527" style="stroke: rgb(231, 226, 226); stroke-opacity: 1; stroke-width: 1px;"/><path class="ygrid crisp" transform="translate(0,333.45)" d="M64,0h527" style="stroke: rgb(231, 226, 226); stroke-opacity: 1; stroke-width: 1px;"/><path class="ygrid crisp" transform="translate(0,287.68)" d="M64,0h527" style="stroke: rgb(231, 226, 226); stroke-opacity: 1; stroke-width: 1px;"/><path class="ygrid crisp" transform="translate(0,241.9)" d="M64,0h527" style="stroke: rgb(231, 226, 226); stroke-opacity: 1; stroke-width: 1px;"/><path class="ygrid crisp" transform="translate(0,196.13)" d="M64,0h527" style="stroke: rgb(231, 226, 226); stroke-opacity: 1; stroke-width: 1px;"/><path class="ygrid crisp" transform="translate(0,150.35)" d="M64,0h527" style="stroke: rgb(231, 226, 226); stroke-opacity: 1; stroke-width: 1px;"/><path class="ygrid crisp" transform="translate(0,104.58)" d="M64,0h527" style="stroke: rgb(231, 226, 226); stroke-opacity: 1; stroke-width: 1px;"/></g></g><g class="zerolinelayer"><path class="yzl zl crisp" transform="translate(0,425)" d="M64,0h527" style="stroke: rgb(68, 68, 68); stroke-opacity: 1; stroke-width: 1px;"/></g><path class="xlines-below"/><path class="ylines-below"/><g class="overlines-below"/><g class="xaxislayer-below"/><g class="yaxislayer-below"/><g class="overaxes-below"/><g class="plot" transform="translate(64,100)" clip-path="url(#clipb8be4fxyplot)"><g class="scatterlayer mlayer"><g class="trace scatter trace8b8e35" style="stroke-miterlimit: 2; opacity: 1;"><g class="fills"/><g class="errorbars"/><g class="lines"><path class="js-line" d="M0,72.42L10.33,75.44L20.67,74.06L31,77.54L41.33,78L62,76.35L72.33,79.28L82.67,76.08L93,75.44L103.33,76.17L113.67,74.98L124,78.46L134.33,79.56L155,80.75L165.33,77.91L175.67,77.91L196.33,80.01L206.67,81.85L217,85.23L237.67,82.67L248,79.19L258.33,82.49L268.67,82.39L279,81.57L289.33,84.32L310,87.98L320.33,88.99L330.67,91.92L341,92.19L351.33,91.37L361.67,93.93L372,95.94L382.33,95.21L392.67,96.13L403,95.49L413.33,96.49L423.67,100.15L434,96.95L444.33,97.5L454.67,98.14L465,99.88L475.33,103.63L485.67,102.99L496,103.45L506.33,102.44L516.67,104.18" style="vector-effect: non-scaling-stroke; fill: none; stroke: rgb(160, 29, 40); stroke-opacity: 1; stroke-width: 2px; opacity: 1;"/></g><g class="points"/><g class="text"/></g><g class="trace scatter tracee48b6d" style="stroke-miterlimit: 2; opacity: 1;"><g class="fills"/><g class="errorbars"/><g class="lines"><path class="js-line" d="M0,110.59L10.33,112.42L20.67,115.81L31,117L41.33,116.63L62,119.47L72.33,119.38L93,114.62L103.33,119.11L113.67,120.02L134.33,117.46L144.67,120.2L155,119.38L165.33,116.82L175.67,120.66L186,125.88L196.33,123.87L217,125.06L227.33,126.52L258.33,123.5L268.67,127.71L279,132.01L289.33,128.08L299.67,125.7L310,126.15L320.33,123.77L330.67,122.49L341,120.3L351.33,122.68L361.67,125.97L372,126.61L392.67,127.25L403,125.06L423.67,126.06L434,126.34L444.33,122.13L454.67,119.75L465,121.85L475.33,124.78L485.67,121.94L496,123.59L516.67,120.3L527,121.49" style="vector-effect: non-scaling-stroke; fill: none; stroke: rgb(73, 156, 201); stroke-opacity: 1; stroke-width: 2px; opacity: 1;"/></g><g class="points"/><g class="text"/></g><g class="trace scatter trace9cc25d" style="stroke-miterlimit: 2; opacity: 1;"><g class="fills"/><g class="errorbars"/><g class="lines"><path class="js-line" d="M0,124.42L10.33,127.99L20.67,128.99L31,128.72L41.33,126.8L51.67,124.51L62,126.61L72.33,126.7L82.67,128.9L103.33,130.09L113.67,126.8L134.33,125.24L155,127.35L165.33,128.26L175.67,130.37L186,130.82L196.33,132.38L206.67,132.2L227.33,134.39L237.67,136.59L248,135.04L258.33,131.46L268.67,130.46L279,129.08L289.33,129.27L320.33,129.18L330.67,130.82L341,132.84L351.33,132.38L361.67,132.93L372,135.4L392.67,136.87L403,138.42L413.33,142.27L423.67,142.08L434,143.27L444.33,143L454.67,142.54L465,144.28L485.67,145.11L496,148.04L506.33,146.3L516.67,143.46L527,146.02" style="vector-effect: non-scaling-stroke; fill: none; stroke: rgb(249, 162, 55); stroke-opacity: 1; stroke-width: 2px; opacity: 1;"/></g><g class="points"/><g class="text"/></g><g class="trace scatter trace4ac309" style="stroke-miterlimit: 2; opacity: 1;"><g class="fills"/><g class="errorbars"/><g class="lines"><path class="js-line" d="M0,150.78L10.33,151.06L20.67,152.43L41.33,157.19L51.67,156.09L72.33,158.29L82.67,155.91L93,156.73L103.33,154.81L124,154.54L144.67,159.02L155,158.47L165.33,159.39L175.67,157.65L186,160.12L196.33,160.76L206.67,160.03L217,158.38L227.33,136.5L237.67,131.92L248,131.19L268.67,130.55L279,132.75L289.33,134.67L299.67,135.31L310,137.6L320.33,135.22L330.67,136.59L341,135.68L351.33,136.32L361.67,139.43L372,139.61L382.33,141.26L403,139.89L413.33,137.42L423.67,134.76L434,130.27L444.33,125.7L454.67,124.69L465,121.49L475.33,121.85L485.67,120.02L496,120.75L516.67,120.2L527,121.12" style="vector-effect: non-scaling-stroke; fill: none; stroke: rgb(111, 186, 58); stroke-opacity: 1; stroke-width: 2px; opacity: 1;"/></g><g class="points"/><g class="text"/></g><g class="trace scatter tracee6336f" style="stroke-miterlimit: 2; opacity: 1;"><g class="fills"/><g class="errorbars"/><g class="lines"><path class="js-line" d="M0,126.61L10.33,124.42L20.67,125.33L31,126.98" style="vector-effect: non-scaling-stroke; fill: none; stroke: rgb(87, 61, 107); stroke-opacity: 1; stroke-width: 2px; opacity: 1;"/></g><g class="points"/><g class="text"/></g></g></g><g class="overplot"/><path class="xlines-above crisp" d="M0,0" style="fill: none;"/><path class="ylines-above crisp" d="M0,0" style="fill: none;"/><g class="overlines-above"/><g class="xaxislayer-above"><g class="xtick"><text text-anchor="middle" x="0" y="448" transform="translate(64,0)" style="font-family: 'Helvetica Neue', Arial; font-size: 12px; fill: rgb(84, 86, 91); fill-opacity: 1; white-space: pre; opacity: 1;">Jan</text></g><g class="xtick"><text text-anchor="middle" x="0" y="448" style="font-family: 'Helvetica Neue', Arial; font-size: 12px; fill: rgb(84, 86, 91); fill-opacity: 1; white-space: pre; opacity: 1;" transform="translate(105.33,0)">Feb</text></g><g class="xtick"><text text-anchor="middle" x="0" y="448" style="font-family: 'Helvetica Neue', Arial; font-size: 12px; fill: rgb(84, 86, 91); fill-opacity: 1; white-space: pre; opacity: 1;" transform="translate(146.67000000000002,0)">Mar</text></g><g class="xtick"><text text-anchor="middle" x="0" y="448" style="font-family: 'Helvetica Neue', Arial; font-size: 12px; fill: rgb(84, 86, 91); fill-opacity: 1; white-space: pre; opacity: 1;" transform="translate(188,0)">Apr</text></g><g class="xtick"><text text-anchor="middle" x="0" y="448" style="font-family: 'Helvetica Neue', Arial; font-size: 12px; fill: rgb(84, 86, 91); fill-opacity: 1; white-space: pre; opacity: 1;" transform="translate(239.67,0)">May</text></g><g class="xtick"><text text-anchor="middle" x="0" y="448" style="font-family: 'Helvetica Neue', Arial; font-size: 12px; fill: rgb(84, 86, 91); fill-opacity: 1; white-space: pre; opacity: 1;" transform="translate(281,0)">Jun</text></g><g class="xtick"><text text-anchor="middle" x="0" y="448" style="font-family: 'Helvetica Neue', Arial; font-size: 12px; fill: rgb(84, 86, 91); fill-opacity: 1; white-space: pre; opacity: 1;" transform="translate(322.33,0)">Jul</text></g><g class="xtick"><text text-anchor="middle" x="0" y="448" style="font-family: 'Helvetica Neue', Arial; font-size: 12px; fill: rgb(84, 86, 91); fill-opacity: 1; white-space: pre; opacity: 1;" transform="translate(374,0)">Aug</text></g><g class="xtick"><text text-anchor="middle" x="0" y="448" style="font-family: 'Helvetica Neue', Arial; font-size: 12px; fill: rgb(84, 86, 91); fill-opacity: 1; white-space: pre; opacity: 1;" transform="translate(415.33,0)">Sep</text></g><g class="xtick"><text text-anchor="middle" x="0" y="448" style="font-family: 'Helvetica Neue', Arial; font-size: 12px; fill: rgb(84, 86, 91); fill-opacity: 1; white-space: pre; opacity: 1;" transform="translate(467,0)">Oct</text></g><g class="xtick"><text text-anchor="middle" x="0" y="448" style="font-family: 'Helvetica Neue', Arial; font-size: 12px; fill: rgb(84, 86, 91); fill-opacity: 1; white-space: pre; opacity: 1;" transform="translate(508.33,0)">Nov</text></g><g class="xtick"><text text-anchor="middle" x="0" y="448" style="font-family: 'Helvetica Neue', Arial; font-size: 12px; fill: rgb(84, 86, 91); fill-opacity: 1; white-space: pre; opacity: 1;" transform="translate(549.6700000000001,0)">Dec</text></g></g><g class="yaxislayer-above"><g class="ytick"><text text-anchor="end" x="53" y="4.199999999999999" transform="translate(0,425)" style="font-family: 'Helvetica Neue', Arial; font-size: 12px; fill: rgb(84, 86, 91); fill-opacity: 1; white-space: pre; opacity: 1;">0</text></g><g class="ytick"><text text-anchor="end" x="53" y="4.199999999999999" style="font-family: 'Helvetica Neue', Arial; font-size: 12px; fill: rgb(84, 86, 91); fill-opacity: 1; white-space: pre; opacity: 1;" transform="translate(0,379.23)">500</text></g><g class="ytick"><text text-anchor="end" x="53" y="4.199999999999999" style="font-family: 'Helvetica Neue', Arial; font-size: 12px; fill: rgb(84, 86, 91); fill-opacity: 1; white-space: pre; opacity: 1;" transform="translate(0,333.45)">1,000</text></g><g class="ytick"><text text-anchor="end" x="53" y="4.199999999999999" style="font-family: 'Helvetica Neue', Arial; font-size: 12px; fill: rgb(84, 86, 91); fill-opacity: 1; white-space: pre; opacity: 1;" transform="translate(0,287.68)">1,500</text></g><g class="ytick"><text text-anchor="end" x="53" y="4.199999999999999" style="font-family: 'Helvetica Neue', Arial; font-size: 12px; fill: rgb(84, 86, 91); fill-opacity: 1; white-space: pre; opacity: 1;" transform="translate(0,241.9)">2,000</text></g><g class="ytick"><text text-anchor="end" x="53" y="4.199999999999999" style="font-family: 'Helvetica Neue', Arial; font-size: 12px; fill: rgb(84, 86, 91); fill-opacity: 1; white-space: pre; opacity: 1;" transform="translate(0,196.13)">2,500</text></g><g class="ytick"><text text-anchor="end" x="53" y="4.199999999999999" style="font-family: 'Helvetica Neue', Arial; font-size: 12px; fill: rgb(84, 86, 91); fill-opacity: 1; white-space: pre; opacity: 1;" transform="translate(0,150.35)">3,000</text></g><g class="ytick"><text text-anchor="end" x="53" y="4.199999999999999" style="font-family: 'Helvetica Neue', Arial; font-size: 12px; fill: rgb(84, 86, 91); fill-opacity: 1; white-space: pre; opacity: 1;" transform="translate(0,104.58)">3,500</text></g></g><g class="overaxes-above"/></g></g><g class="polarlayer"/><g class="smithlayer"/><g class="ternarylayer"/><g class="geolayer"/><g class="funnelarealayer"/><g class="pielayer"/><g class="iciclelayer"/><g class="treemaplayer"/><g class="sunburstlayer"/><g class="glimages"/><defs id="topdefs-b8be4f"><g class="clips"/></defs><g class="layer-above"><g class="imagelayer"/><g class="shapelayer"/></g><g class="infolayer"><g class="g-gtitle"><text class="gtitle" x="327.5" y="30" text-anchor="middle" dy="0em" style="font-family: 'Helvetica Neue', Arial; font-size: 17px; fill: rgb(84, 86, 91); opacity: 1; font-weight: normal; white-space: pre;"><tspan style="font-weight:bold">HDC population in England and Wales</tspan></text></g><g class="g-xtitle"/><g class="g-ytitle"/><g class="annotation" data-index="0" style="opacity: 1;"><g class="annotation-text-g" transform="rotate(0,604,204.18)"><g class="cursor-pointer" transform="translate(591,196)"><rect class="bg" x="0.5" y="0.5" width="25" height="15" style="stroke-width: 1px; stroke: rgb(0, 0, 0); stroke-opacity: 0; fill: rgb(0, 0, 0); fill-opacity: 0;"/><text class="annotation-text" text-anchor="start" x="2" y="11.5" style="font-family: 'Helvetica Neue', Arial; font-size: 10px; fill: rgb(160, 29, 40); fill-opacity: 1; white-space: pre;">2020</text></g></g></g><g class="annotation" data-index="1" style="opacity: 1;"><g class="annotation-text-g" transform="rotate(0,604,233.39)"><g class="cursor-pointer" transform="translate(591,225)"><rect class="bg" x="0.5" y="0.5" width="25" height="15" style="stroke-width: 1px; stroke: rgb(0, 0, 0); stroke-opacity: 0; fill: rgb(0, 0, 0); fill-opacity: 0;"/><text class="annotation-text" text-anchor="start" x="2" y="11.5" style="font-family: 'Helvetica Neue', Arial; font-size: 10px; fill: rgb(73, 156, 201); fill-opacity: 1; white-space: pre;">2021</text></g></g></g><g class="annotation" data-index="2" style="opacity: 1;"><g class="annotation-text-g" transform="rotate(0,604,246.02)"><g class="cursor-pointer" transform="translate(591,238)"><rect class="bg" x="0.5" y="0.5" width="25" height="15" style="stroke-width: 1px; stroke: rgb(0, 0, 0); stroke-opacity: 0; fill: rgb(0, 0, 0); fill-opacity: 0;"/><text class="annotation-text" text-anchor="start" x="2" y="11.5" style="font-family: 'Helvetica Neue', Arial; font-size: 10px; fill: rgb(249, 162, 55); fill-opacity: 1; white-space: pre;">2022</text></g></g></g><g class="annotation" data-index="3" style="opacity: 1;"><g class="annotation-text-g" transform="rotate(0,604,221.12)"><g class="cursor-pointer" transform="translate(591,213)"><rect class="bg" x="0.5" y="0.5" width="25" height="15" style="stroke-width: 1px; stroke: rgb(0, 0, 0); stroke-opacity: 0; fill: rgb(0, 0, 0); fill-opacity: 0;"/><text class="annotation-text" text-anchor="start" x="2" y="11.5" style="font-family: 'Helvetica Neue', Arial; font-size: 10px; fill: rgb(111, 186, 58); fill-opacity: 1; white-space: pre;">2023</text></g></g></g><g class="annotation" data-index="4" style="opacity: 1;"><g class="annotation-text-g" transform="rotate(0,108,226.98000000000002)"><g class="cursor-pointer" transform="translate(95,219)"><rect class="bg" x="0.5" y="0.5" width="25" height="15" style="stroke-width: 1px; stroke: rgb(0, 0, 0); stroke-opacity: 0; fill: rgb(0, 0, 0); fill-opacity: 0;"/><text class="annotation-text" text-anchor="start" x="2" y="11.5" style="font-family: 'Helvetica Neue', Arial; font-size: 10px; fill: rgb(87, 61, 107); fill-opacity: 1; white-space: pre;">2024</text></g></g></g><g class="annotation" data-index="5" style="opacity: 1;"><g class="annotation-text-g" transform="rotate(0,175.84,477.75)"><g class="cursor-pointer" transform="translate(22,469)"><rect class="bg" x="0.5" y="0.5" width="307" height="17" style="stroke-width: 1px; stroke: rgb(0, 0, 0); stroke-opacity: 0; fill: rgb(0, 0, 0); fill-opacity: 0;"/><text class="annotation-text" text-anchor="start" x="2" y="13.5" style="font-family: 'Helvetica Neue', Arial; font-size: 12px; fill: rgb(84, 86, 91); fill-opacity: 1; white-space: pre;"><tspan style="font-weight:bold">Source: Ministry of Justice Prison Population Bulletin</tspan></text></g></g></g><g class="annotation" data-index="6" style="opacity: 1;"><g class="annotation-text-g" transform="rotate(0,137.5,95.99999999999999)"><g class="cursor-pointer" transform="translate(64,87)"><rect class="bg" x="0.5" y="0.5" width="146" height="17" style="stroke-width: 1px; stroke: rgb(0, 0, 0); stroke-opacity: 0; fill: rgb(0, 0, 0); fill-opacity: 0;"/><text class="annotation-text" text-anchor="start" x="2" y="13.5" style="font-family: 'Helvetica Neue', Arial; font-size: 12px; fill: rgb(84, 86, 91); fill-opacity: 1; white-space: pre;">Number of people on HDC</text></g></g></g></g></svg>