<svg class="main-svg" xmlns="http://www.w3.org/2000/svg" xmlns:xlink="http://www.w3.org/1999/xlink" width="655" height="500" style="" viewBox="0 0 655 500"><rect x="0" y="0" width="655" height="500" style="fill: rgb(247, 242, 242); fill-opacity: 1;"/><defs id="defs-e47fb9"><g class="clips"><clipPath id="clipe47fb9xyplot" class="plotclip"><rect width="527" height="325"/></clipPath><clipPath class="axesclip" id="clipe47fb9x"><rect x="64" y="0" width="527" height="500"/></clipPath><clipPath class="axesclip" id="clipe47fb9y"><rect x="0" y="100" width="655" height="325"/></clipPath><clipPath class="axesclip" id="clipe47fb9xy"><rect x="64" y="100" width="527" height="325"/></clipPath></g><g class="gradients"/><g class="patterns"/></defs><g class="bglayer"/><g class="layer-below"><g class="imagelayer"/><g class="shapelayer"/></g><g class="cartesianlayer"><g class="subplot xy"><g class="layer-subplot"><g class="shapelayer"/><g class="imagelayer"/></g><g class="minor-gridlayer"><g class="x"/><g class="y"/></g><g class="gridlayer"><g class="x"/><g class="y"><path class="ygrid crisp" transform="translate(0,422.71)" d="M64,0h527" style="stroke: rgb(231, 226, 226); stroke-opacity: 1; stroke-width: 1px;"/><path class="ygrid crisp" transform="translate(0,376.94)" d="M64,0h527" style="stroke: rgb(231, 226, 226); stroke-opacity: 1; stroke-width: 1px;"/><path class="ygrid crisp" transform="translate(0,331.15999999999997)" d="M64,0h527" style="stroke: rgb(231, 226, 226); stroke-opacity: 1; stroke-width: 1px;"/><path class="ygrid crisp" transform="translate(0,285.39)" d="M64,0h527" style="stroke: rgb(231, 226, 226); stroke-opacity: 1; stroke-width: 1px;"/><path class="ygrid crisp" transform="translate(0,239.61)" d="M64,0h527" style="stroke: rgb(231, 226, 226); stroke-opacity: 1; stroke-width: 1px;"/><path class="ygrid crisp" transform="translate(0,193.84)" d="M64,0h527" style="stroke: rgb(231, 226, 226); stroke-opacity: 1; stroke-width: 1px;"/><path class="ygrid crisp" transform="translate(0,148.06)" d="M64,0h527" style="stroke: rgb(231, 226, 226); stroke-opacity: 1; stroke-width: 1px;"/><path class="ygrid crisp" transform="translate(0,102.29)" d="M64,0h527" style="stroke: rgb(231, 226, 226); stroke-opacity: 1; stroke-width: 1px;"/></g></g><g class="zerolinelayer"/><path class="xlines-below"/><path class="ylines-below"/><g class="overlines-below"/><g class="xaxislayer-below"/><g class="yaxislayer-below"/><g class="overaxes-below"/><g class="plot" transform="translate(64,100)" clip-path="url(#clipe47fb9xyplot)"><g class="scatterlayer mlayer"><g class="trace scatter trace3de5d0" style="stroke-miterlimit: 2; opacity: 1;"><g class="fills"/><g class="errorbars"/><g class="lines"><path class="js-line" d="M0,172.59L20.67,164.06L31,163.71L41.33,160.74L51.67,156.8L62,154.72L72.33,151.58L82.67,147.53L93,145.56L103.33,146.18L113.67,150.48L124,161.31L134.33,174.95L155,200.33L165.33,207.38L175.67,214.25L196.33,223.2L206.67,228.83L217,232.12L237.67,239.29L248,241.69L258.33,245.05L268.67,243.84L289.33,242.77L299.67,241.58L310,241.16L320.33,242.63L351.33,245.54L361.67,249.31L372,249.79L382.33,251.81L392.67,250.89L403,251.3L423.67,252.9L434,253L444.33,254.58L454.67,257.07L465,257.07L475.33,259.98L485.67,259.86L496,258.54L506.33,261.92L516.67,262.79" style="vector-effect: non-scaling-stroke; fill: none; stroke: rgb(160, 29, 40); stroke-opacity: 1; stroke-width: 2px; opacity: 1;"/></g><g class="points"/><g class="text"/></g><g class="trace scatter trace2beb12" style="stroke-miterlimit: 2; opacity: 1;"><g class="fills"/><g class="errorbars"/><g class="lines"><path class="js-line" d="M0,278.54L31,277.49L41.33,276.39L51.67,276.07L62,279.32L82.67,277.85L93,278.17L103.33,276.98L113.67,276.75L134.33,285.31L144.67,284.26L155,285.08L165.33,282.18L175.67,283.89L186,280.99L196.33,277.62L206.67,276.16L217,278.95L227.33,276.09L237.67,274.95L248,272.91L268.67,266.68L279,268.29L289.33,268.86L299.67,265.77L310,262.84L320.33,258.79L330.67,257.89L341,259.77L351.33,260.66L361.67,259.93L372,259.36L382.33,257.94L392.67,258.88L403,255.65L413.33,253.29L423.67,248.99L434,245.35L444.33,247.55L454.67,244.87L465,240.77L475.33,238.37L485.67,239.33L506.33,243.84L516.67,248.35L527,251.94" style="vector-effect: non-scaling-stroke; fill: none; stroke: rgb(73, 156, 201); stroke-opacity: 1; stroke-width: 2px; opacity: 1;"/></g><g class="points"/><g class="text"/></g><g class="trace scatter tracef90c4a" style="stroke-miterlimit: 2; opacity: 1;"><g class="fills"/><g class="errorbars"/><g class="lines"><path class="js-line" d="M0,252.08L31,244.62L41.33,239.79L51.67,237.02L62,237.55L82.67,237.68L93,238.51L103.33,235.56L113.67,237.02L124,235.97L134.33,237.07L155,241.03L165.33,237.36L175.67,236.98L186,232.83L196.33,230.48L206.67,226.93L227.33,228.53L237.67,222.92L248,220.27L258.33,214.55L279,212.42L289.33,213.22L299.67,208.64L310,207.11L320.33,206.67L330.67,203.54L341,202L351.33,202.67L361.67,199.01L372,197.7L382.33,200.31L392.67,201.2L403,198.59L413.33,193.72L434,183.95L444.33,181.7L454.67,176.71L465,169.57L475.33,166.18L485.67,164.88L496,166.35L506.33,170.1L516.67,175.04L527,181.36" style="vector-effect: non-scaling-stroke; fill: none; stroke: rgb(249, 162, 55); stroke-opacity: 1; stroke-width: 2px; opacity: 1;"/></g><g class="points"/><g class="text"/></g><g class="trace scatter trace0d9418" style="stroke-miterlimit: 2; opacity: 1;"><g class="fills"/><g class="errorbars"/><g class="lines"><path class="js-line" d="M0,180.54L20.67,173.07L31,167.26L41.33,158.2L51.67,151.77L62,146.78L72.33,143.18L93,136.48L103.33,135.49L113.67,134.35L124,131.1L144.67,129.63L155,127.28L175.67,121.94L186,118.1L206.67,107.23L217,107.41L227.33,111.1L237.67,107.11L248,103.63L258.33,97.25L268.67,93.04L279,85.96L289.33,82.44L299.67,80.06L310,76.38L320.33,75.76L330.67,70.68L341,69.51L351.33,68.11L361.67,68.02L382.33,55.27L392.67,52.8L413.33,42.91L423.67,45.18L434,52.62L444.33,53.46L454.67,54.84L465,53.92L475.33,49.67L485.67,50.56L496,51.18L506.33,58.13L516.67,66.95L527,66.01" style="vector-effect: non-scaling-stroke; fill: none; stroke: rgb(111, 186, 58); stroke-opacity: 1; stroke-width: 2px; opacity: 1;"/></g><g class="points"/><g class="text"/></g><g class="trace scatter trace6c47c8" style="stroke-miterlimit: 2; opacity: 1;"><g class="fills"/><g class="errorbars"/><g class="lines"><path class="js-line" d="M0,60.7L10.33,58.39L20.67,57.7L31,58.64L41.33,54.79L51.67,48.48" style="vector-effect: non-scaling-stroke; fill: none; stroke: rgb(87, 61, 107); stroke-opacity: 1; stroke-width: 2px; opacity: 1;"/></g><g class="points"/><g class="text"/></g></g></g><g class="overplot"/><path class="xlines-above crisp" d="M0,0" style="fill: none;"/><path class="ylines-above crisp" d="M0,0" style="fill: none;"/><g class="overlines-above"/><g class="xaxislayer-above"><g class="xtick"><text text-anchor="middle" x="0" y="448" transform="translate(64,0)" style="font-family: 'Helvetica Neue', Arial; font-size: 12px; fill: rgb(84, 86, 91); fill-opacity: 1; white-space: pre; opacity: 1;">Jan</text></g><g class="xtick"><text text-anchor="middle" x="0" y="448" style="font-family: 'Helvetica Neue', Arial; font-size: 12px; fill: rgb(84, 86, 91); fill-opacity: 1; white-space: pre; opacity: 1;" transform="translate(105.33,0)">Feb</text></g><g class="xtick"><text text-anchor="middle" x="0" y="448" style="font-family: 'Helvetica Neue', Arial; font-size: 12px; fill: rgb(84, 86, 91); fill-opacity: 1; white-space: pre; opacity: 1;" transform="translate(146.67000000000002,0)">Mar</text></g><g class="xtick"><text text-anchor="middle" x="0" y="448" style="font-family: 'Helvetica Neue', Arial; font-size: 12px; fill: rgb(84, 86, 91); fill-opacity: 1; white-space: pre; opacity: 1;" transform="translate(188,0)">Apr</text></g><g class="xtick"><text text-anchor="middle" x="0" y="448" style="font-family: 'Helvetica Neue', Arial; font-size: 12px; fill: rgb(84, 86, 91); fill-opacity: 1; white-space: pre; opacity: 1;" transform="translate(239.67,0)">May</text></g><g class="xtick"><text text-anchor="middle" x="0" y="448" style="font-family: 'Helvetica Neue', Arial; font-size: 12px; fill: rgb(84, 86, 91); fill-opacity: 1; white-space: pre; opacity: 1;" transform="translate(281,0)">Jun</text></g><g class="xtick"><text text-anchor="middle" x="0" y="448" style="font-family: 'Helvetica Neue', Arial; font-size: 12px; fill: rgb(84, 86, 91); fill-opacity: 1; white-space: pre; opacity: 1;" transform="translate(322.33,0)">Jul</text></g><g class="xtick"><text text-anchor="middle" x="0" y="448" style="font-family: 'Helvetica Neue', Arial; font-size: 12px; fill: rgb(84, 86, 91); fill-opacity: 1; white-space: pre; opacity: 1;" transform="translate(374,0)">Aug</text></g><g class="xtick"><text text-anchor="middle" x="0" y="448" style="font-family: 'Helvetica Neue', Arial; font-size: 12px; fill: rgb(84, 86, 91); fill-opacity: 1; white-space: pre; opacity: 1;" transform="translate(415.33,0)">Sep</text></g><g class="xtick"><text text-anchor="middle" x="0" y="448" style="font-family: 'Helvetica Neue', Arial; font-size: 12px; fill: rgb(84, 86, 91); fill-opacity: 1; white-space: pre; opacity: 1;" transform="translate(467,0)">Oct</text></g><g class="xtick"><text text-anchor="middle" x="0" y="448" style="font-family: 'Helvetica Neue', Arial; font-size: 12px; fill: rgb(84, 86, 91); fill-opacity: 1; white-space: pre; opacity: 1;" transform="translate(508.33,0)">Nov</text></g><g class="xtick"><text text-anchor="middle" x="0" y="448" style="font-family: 'Helvetica Neue', Arial; font-size: 12px; fill: rgb(84, 86, 91); fill-opacity: 1; white-space: pre; opacity: 1;" transform="translate(549.6700000000001,0)">Dec</text></g></g><g class="yaxislayer-above"><g class="ytick"><text text-anchor="end" x="53" y="4.199999999999999" transform="translate(0,422.71)" style="font-family: 'Helvetica Neue', Arial; font-size: 12px; fill: rgb(84, 86, 91); fill-opacity: 1; white-space: pre; opacity: 1;">76,000</text></g><g class="ytick"><text text-anchor="end" x="53" y="4.199999999999999" style="font-family: 'Helvetica Neue', Arial; font-size: 12px; fill: rgb(84, 86, 91); fill-opacity: 1; white-space: pre; opacity: 1;" transform="translate(0,376.94)">78,000</text></g><g class="ytick"><text text-anchor="end" x="53" y="4.199999999999999" style="font-family: 'Helvetica Neue', Arial; font-size: 12px; fill: rgb(84, 86, 91); fill-opacity: 1; white-space: pre; opacity: 1;" transform="translate(0,331.15999999999997)">80,000</text></g><g class="ytick"><text text-anchor="end" x="53" y="4.199999999999999" style="font-family: 'Helvetica Neue', Arial; font-size: 12px; fill: rgb(84, 86, 91); fill-opacity: 1; white-space: pre; opacity: 1;" transform="translate(0,285.39)">82,000</text></g><g class="ytick"><text text-anchor="end" x="53" y="4.199999999999999" style="font-family: 'Helvetica Neue', Arial; font-size: 12px; fill: rgb(84, 86, 91); fill-opacity: 1; white-space: pre; opacity: 1;" transform="translate(0,239.61)">84,000</text></g><g class="ytick"><text text-anchor="end" x="53" y="4.199999999999999" style="font-family: 'Helvetica Neue', Arial; font-size: 12px; fill: rgb(84, 86, 91); fill-opacity: 1; white-space: pre; opacity: 1;" transform="translate(0,193.84)">86,000</text></g><g class="ytick"><text text-anchor="end" x="53" y="4.199999999999999" style="font-family: 'Helvetica Neue', Arial; font-size: 12px; fill: rgb(84, 86, 91); fill-opacity: 1; white-space: pre; opacity: 1;" transform="translate(0,148.06)">88,000</text></g><g class="ytick"><text text-anchor="end" x="53" y="4.199999999999999" style="font-family: 'Helvetica Neue', Arial; font-size: 12px; fill: rgb(84, 86, 91); fill-opacity: 1; white-space: pre; opacity: 1;" transform="translate(0,102.29)">90,000</text></g></g><g class="overaxes-above"/></g></g><g class="polarlayer"/><g class="smithlayer"/><g class="ternarylayer"/><g class="geolayer"/><g class="funnelarealayer"/><g class="pielayer"/><g class="iciclelayer"/><g class="treemaplayer"/><g class="sunburstlayer"/><g class="glimages"/><defs id="topdefs-e47fb9"><g class="clips"/></defs><g class="layer-above"><g class="imagelayer"/><g class="shapelayer"/></g><g class="infolayer"><g class="g-gtitle"><text class="gtitle" x="327.5" y="30" text-anchor="middle" dy="0em" style="font-family: 'Helvetica Neue', Arial; font-size: 17px; fill: rgb(84, 86, 91); opacity: 1; font-weight: normal; white-space: pre;"><tspan style="font-weight:bold">Prison population in England and Wales</tspan></text></g><g class="g-xtitle"/><g class="g-ytitle"/><g class="annotation" data-index="0" style="opacity: 1;"><g class="annotation-text-g" transform="rotate(0,604,362.79)"><g class="cursor-pointer" transform="translate(591,355)"><rect class="bg" x="0.5" y="0.5" width="25" height="15" style="stroke-width: 1px; stroke: rgb(0, 0, 0); stroke-opacity: 0; fill: rgb(0, 0, 0); fill-opacity: 0;"/><text class="annotation-text" text-anchor="start" x="2" y="11.5" style="font-family: 'Helvetica Neue', Arial; font-size: 10px; fill: rgb(160, 29, 40); fill-opacity: 1; white-space: pre;">2020</text></g></g></g><g class="annotation" data-index="1" style="opacity: 1;"><g class="annotation-text-g" transform="rotate(0,604,351.94)"><g class="cursor-pointer" transform="translate(591,344)"><rect class="bg" x="0.5" y="0.5" width="25" height="15" style="stroke-width: 1px; stroke: rgb(0, 0, 0); stroke-opacity: 0; fill: rgb(0, 0, 0); fill-opacity: 0;"/><text class="annotation-text" text-anchor="start" x="2" y="11.5" style="font-family: 'Helvetica Neue', Arial; font-size: 10px; fill: rgb(73, 156, 201); fill-opacity: 1; white-space: pre;">2021</text></g></g></g><g class="annotation" data-index="2" style="opacity: 1;"><g class="annotation-text-g" transform="rotate(0,604,281.36)"><g class="cursor-pointer" transform="translate(591,273)"><rect class="bg" x="0.5" y="0.5" width="25" height="15" style="stroke-width: 1px; stroke: rgb(0, 0, 0); stroke-opacity: 0; fill: rgb(0, 0, 0); fill-opacity: 0;"/><text class="annotation-text" text-anchor="start" x="2" y="11.5" style="font-family: 'Helvetica Neue', Arial; font-size: 10px; fill: rgb(249, 162, 55); fill-opacity: 1; white-space: pre;">2022</text></g></g></g><g class="annotation" data-index="3" style="opacity: 1;"><g class="annotation-text-g" transform="rotate(0,604,166.01)"><g class="cursor-pointer" transform="translate(591,158)"><rect class="bg" x="0.5" y="0.5" width="25" height="15" style="stroke-width: 1px; stroke: rgb(0, 0, 0); stroke-opacity: 0; fill: rgb(0, 0, 0); fill-opacity: 0;"/><text class="annotation-text" text-anchor="start" x="2" y="11.5" style="font-family: 'Helvetica Neue', Arial; font-size: 10px; fill: rgb(111, 186, 58); fill-opacity: 1; white-space: pre;">2023</text></g></g></g><g class="annotation" data-index="4" style="opacity: 1;"><g class="annotation-text-g" transform="rotate(0,128.67000000000002,148.48)"><g class="cursor-pointer" transform="translate(116,140)"><rect class="bg" x="0.5" y="0.5" width="25" height="15" style="stroke-width: 1px; stroke: rgb(0, 0, 0); stroke-opacity: 0; fill: rgb(0, 0, 0); fill-opacity: 0;"/><text class="annotation-text" text-anchor="start" x="2" y="11.5" style="font-family: 'Helvetica Neue', Arial; font-size: 10px; fill: rgb(87, 61, 107); fill-opacity: 1; white-space: pre;">2024</text></g></g></g><g class="annotation" data-index="5" style="opacity: 1;"><g class="annotation-text-g" transform="rotate(0,175.84,477.75)"><g class="cursor-pointer" transform="translate(22,469)"><rect class="bg" x="0.5" y="0.5" width="307" height="17" style="stroke-width: 1px; stroke: rgb(0, 0, 0); stroke-opacity: 0; fill: rgb(0, 0, 0); fill-opacity: 0;"/><text class="annotation-text" text-anchor="start" x="2" y="13.5" style="font-family: 'Helvetica Neue', Arial; font-size: 12px; fill: rgb(84, 86, 91); fill-opacity: 1; white-space: pre;"><tspan style="font-weight:bold">Source: Ministry of Justice Prison Population Bulletin</tspan></text></g></g></g><g class="annotation" data-index="6" style="opacity: 1;"><g class="annotation-text-g" transform="rotate(0,109.5,95.99999999999999)"><g class="cursor-pointer" transform="translate(64,87)"><rect class="bg" x="0.5" y="0.5" width="90" height="17" style="stroke-width: 1px; stroke: rgb(0, 0, 0); stroke-opacity: 0; fill: rgb(0, 0, 0); fill-opacity: 0;"/><text class="annotation-text" text-anchor="start" x="2" y="13.5" style="font-family: 'Helvetica Neue', Arial; font-size: 12px; fill: rgb(84, 86, 91); fill-opacity: 1; white-space: pre;">People in prison</text></g></g></g></g></svg>