<svg class="main-svg" xmlns="http://www.w3.org/2000/svg" xmlns:xlink="http://www.w3.org/1999/xlink" width="655" height="500" style="" viewBox="0 0 655 500"><rect x="0" y="0" width="655" height="500" style="fill: rgb(247, 242, 242); fill-opacity: 1;"/><defs id="defs-4e6444"><g class="clips"><clipPath id="clip4e6444xyplot" class="plotclip"><rect width="515" height="325"/></clipPath><clipPath class="axesclip" id="clip4e6444x"><rect x="60" y="0" width="515" height="500"/></clipPath><clipPath class="axesclip" id="clip4e6444y"><rect x="0" y="100" width="655" height="325"/></clipPath><clipPath class="axesclip" id="clip4e6444xy"><rect x="60" y="100" width="515" height="325"/></clipPath></g><g class="gradients"/><g class="patterns"/></defs><g class="bglayer"/><g class="layer-below"><g class="imagelayer"/><g class="shapelayer"/></g><g class="cartesianlayer"><g class="subplot xy"><g class="layer-subplot"><g class="shapelayer"/><g class="imagelayer"/></g><g class="minor-gridlayer"><g class="x"/><g class="y"/></g><g class="gridlayer"><g class="x"/><g class="y"><path class="ygrid crisp" transform="translate(0,422.71)" d="M60,0h515" style="stroke: rgb(231, 226, 226); stroke-opacity: 1; stroke-width: 1px;"/><path class="ygrid crisp" transform="translate(0,376.94)" d="M60,0h515" style="stroke: rgb(231, 226, 226); stroke-opacity: 1; stroke-width: 1px;"/><path class="ygrid crisp" transform="translate(0,331.15999999999997)" d="M60,0h515" style="stroke: rgb(231, 226, 226); stroke-opacity: 1; stroke-width: 1px;"/><path class="ygrid crisp" transform="translate(0,285.39)" d="M60,0h515" style="stroke: rgb(231, 226, 226); stroke-opacity: 1; stroke-width: 1px;"/><path class="ygrid crisp" transform="translate(0,239.61)" d="M60,0h515" style="stroke: rgb(231, 226, 226); stroke-opacity: 1; stroke-width: 1px;"/><path class="ygrid crisp" transform="translate(0,193.84)" d="M60,0h515" style="stroke: rgb(231, 226, 226); stroke-opacity: 1; stroke-width: 1px;"/><path class="ygrid crisp" transform="translate(0,148.06)" d="M60,0h515" style="stroke: rgb(231, 226, 226); stroke-opacity: 1; stroke-width: 1px;"/><path class="ygrid crisp" transform="translate(0,102.29)" d="M60,0h515" style="stroke: rgb(231, 226, 226); stroke-opacity: 1; stroke-width: 1px;"/></g></g><g class="zerolinelayer"/><path class="xlines-below"/><path class="ylines-below"/><g class="overlines-below"/><g class="xaxislayer-below"/><g class="yaxislayer-below"/><g class="overaxes-below"/><g class="plot" transform="translate(60,100)" clip-path="url(#clip4e6444xyplot)"><g class="scatterlayer mlayer"><g class="trace scatter trace783a4d" style="stroke-miterlimit: 2; opacity: 1;"><g class="fills"/><g class="errorbars"/><g class="lines"><path class="js-line" d="M9.72,185.85L29.15,179.89L38.87,180.05L68.02,178.34L77.74,178.68L87.45,178.48L97.17,179.64L106.89,179.78L116.6,178.7L126.32,175.84L136.04,174.86L145.75,173.01L165.19,178.68L174.91,176.21L184.62,177.42L194.34,178.73L204.06,175.29L213.77,176.96L223.49,177.47L233.21,175.32L242.92,175.68L252.64,175.73L262.36,172.34L272.08,169.25L281.79,170.65L291.51,167.54L301.23,168.27L310.94,165.36L320.66,164.7L340.09,164.7L349.81,161.47L359.53,159.2L369.25,155.59L378.96,150.64L388.68,150.3L398.4,150.74L408.11,150.28L417.83,144.3L427.55,152.27L437.26,153.73L446.98,154.38L456.7,157.14L466.42,156.66L476.13,156.66L485.85,159.55L495.57,160.28L505.28,167.74" style="vector-effect: non-scaling-stroke; fill: none; stroke: rgb(160, 29, 40); stroke-opacity: 1; stroke-width: 2px; opacity: 1;"/></g><g class="points"/><g class="text"/></g><g class="trace scatter traceaf7ae5" style="stroke-miterlimit: 2; opacity: 1;"><g class="fills"/><g class="errorbars"/><g class="lines"><path class="js-line" d="M9.72,172.59L29.15,164.06L38.87,163.71L48.58,160.74L58.3,156.8L68.02,154.72L77.74,151.58L87.45,147.53L97.17,145.56L106.89,146.18L116.6,150.48L126.32,161.31L136.04,174.95L155.47,200.33L165.19,207.38L174.91,214.25L194.34,223.2L204.06,228.83L213.77,232.12L233.21,239.29L242.92,241.69L252.64,245.05L262.36,243.84L281.79,242.77L291.51,241.58L301.23,241.16L310.94,242.63L340.09,245.54L349.81,249.31L359.53,249.79L369.25,251.81L378.96,250.89L388.68,251.3L408.11,252.9L417.83,253L427.55,254.58L437.26,257.07L446.98,257.07L456.7,259.98L466.42,259.86L476.13,258.54L485.85,261.92L495.57,262.79" style="vector-effect: non-scaling-stroke; fill: none; stroke: rgb(73, 156, 201); stroke-opacity: 1; stroke-width: 2px; opacity: 1;"/></g><g class="points"/><g class="text"/></g><g class="trace scatter tracea239aa" style="stroke-miterlimit: 2; opacity: 1;"><g class="fills"/><g class="errorbars"/><g class="lines"><path class="js-line" d="M19.43,278.54L48.58,277.49L58.3,276.39L68.02,276.07L77.74,279.32L97.17,277.85L106.89,278.17L116.6,276.98L126.32,276.75L145.75,285.31L155.47,284.26L165.19,285.08L174.91,282.18L184.62,283.89L194.34,280.99L204.06,277.62L213.77,276.16L223.49,278.95L233.21,276.09L242.92,274.95L252.64,272.91L272.08,266.68L281.79,268.29L291.51,268.86L301.23,265.77L310.94,262.84L320.66,258.79L330.38,257.89L340.09,259.77L349.81,260.66L359.53,259.93L369.25,259.36L378.96,257.94L388.68,258.88L398.4,255.65L408.11,253.29L417.83,248.99L427.55,245.35L437.26,247.55L446.98,244.87L456.7,240.77L466.42,238.37L476.13,239.33L495.57,243.84L505.28,248.35L515,251.94" style="vector-effect: non-scaling-stroke; fill: none; stroke: rgb(249, 162, 55); stroke-opacity: 1; stroke-width: 2px; opacity: 1;"/></g><g class="points"/><g class="text"/></g><g class="trace scatter trace3015db" style="stroke-miterlimit: 2; opacity: 1;"><g class="fills"/><g class="errorbars"/><g class="lines"><path class="js-line" d="M19.43,252.08L48.58,244.62L58.3,239.79L68.02,237.02L77.74,237.55L97.17,237.68L106.89,238.51L116.6,235.56L126.32,237.02L136.04,235.97L145.75,237.07L165.19,241.03L174.91,237.36L184.62,236.98L194.34,232.83L204.06,230.48L213.77,226.93L233.21,228.53L242.92,222.92L252.64,220.27L262.36,214.55L281.79,212.42L291.51,213.22L301.23,208.64L310.94,207.11L320.66,206.67L330.38,203.54L340.09,202L349.81,202.67L359.53,199.01L369.25,197.7L378.96,200.31L388.68,201.2L398.4,198.59L408.11,193.72L427.55,183.95L437.26,181.7L446.98,176.71L456.7,169.57L466.42,166.18L476.13,164.88L485.85,166.35L495.57,170.1L505.28,175.04L515,181.36" style="vector-effect: non-scaling-stroke; fill: none; stroke: rgb(111, 186, 58); stroke-opacity: 1; stroke-width: 2px; opacity: 1;"/></g><g class="points"/><g class="text"/></g><g class="trace scatter trace7f2039" style="stroke-miterlimit: 2; opacity: 1;"><g class="fills"/><g class="errorbars"/><g class="lines"><path class="js-line" d="M19.43,180.54L38.87,173.07L48.58,167.26L58.3,158.2L68.02,151.77L77.74,146.78L87.45,143.18L106.89,136.48L116.6,135.49L126.32,134.35L136.04,131.1L155.47,129.63L165.19,127.28L184.62,121.94L194.34,118.1L213.77,107.23L223.49,107.41L233.21,111.1L242.92,107.11L252.64,103.63L262.36,97.25L272.08,93.04L281.79,85.96L291.51,82.44L301.23,80.06L310.94,76.38L320.66,75.76L330.38,70.68L340.09,69.51L349.81,68.11L359.53,68.02L378.96,55.27L388.68,52.8L408.11,42.91L417.83,45.18L427.55,52.62L437.26,53.46L446.98,54.84" style="vector-effect: non-scaling-stroke; fill: none; stroke: rgb(87, 61, 107); stroke-opacity: 1; stroke-width: 2px; opacity: 1;"/></g><g class="points"/><g class="text"/></g></g></g><g class="overplot"/><path class="xlines-above crisp" d="M0,0" style="fill: none;"/><path class="ylines-above crisp" d="M0,0" style="fill: none;"/><g class="overlines-above"/><g class="xaxislayer-above"><g class="xtick"><text text-anchor="middle" x="0" y="438" transform="translate(79.43,0)" style="font-family: 'Helvetica Neue', Arial; font-size: 12px; fill: rgb(84, 86, 91); fill-opacity: 1; white-space: pre; opacity: 1;">Jan</text></g><g class="xtick"><text text-anchor="middle" x="0" y="438" transform="translate(118.3,0)" style="font-family: 'Helvetica Neue', Arial; font-size: 12px; fill: rgb(84, 86, 91); fill-opacity: 1; white-space: pre; opacity: 1;">Feb</text></g><g class="xtick"><text text-anchor="middle" x="0" y="438" transform="translate(157.17000000000002,0)" style="font-family: 'Helvetica Neue', Arial; font-size: 12px; fill: rgb(84, 86, 91); fill-opacity: 1; white-space: pre; opacity: 1;">Mar</text></g><g class="xtick"><text text-anchor="middle" x="0" y="438" transform="translate(196.04,0)" style="font-family: 'Helvetica Neue', Arial; font-size: 12px; fill: rgb(84, 86, 91); fill-opacity: 1; white-space: pre; opacity: 1;">Apr</text></g><g class="xtick"><text text-anchor="middle" x="0" y="438" transform="translate(234.91,0)" style="font-family: 'Helvetica Neue', Arial; font-size: 12px; fill: rgb(84, 86, 91); fill-opacity: 1; white-space: pre; opacity: 1;">May</text></g><g class="xtick"><text text-anchor="middle" x="0" y="438" transform="translate(283.49,0)" style="font-family: 'Helvetica Neue', Arial; font-size: 12px; fill: rgb(84, 86, 91); fill-opacity: 1; white-space: pre; opacity: 1;">Jun</text></g><g class="xtick"><text text-anchor="middle" x="0" y="438" transform="translate(322.36,0)" style="font-family: 'Helvetica Neue', Arial; font-size: 12px; fill: rgb(84, 86, 91); fill-opacity: 1; white-space: pre; opacity: 1;">Jul</text></g><g class="xtick"><text text-anchor="middle" x="0" y="438" transform="translate(361.23,0)" style="font-family: 'Helvetica Neue', Arial; font-size: 12px; fill: rgb(84, 86, 91); fill-opacity: 1; white-space: pre; opacity: 1;">Aug</text></g><g class="xtick"><text text-anchor="middle" x="0" y="438" transform="translate(409.81,0)" style="font-family: 'Helvetica Neue', Arial; font-size: 12px; fill: rgb(84, 86, 91); fill-opacity: 1; white-space: pre; opacity: 1;">Sep</text></g><g class="xtick"><text text-anchor="middle" x="0" y="438" transform="translate(448.68,0)" style="font-family: 'Helvetica Neue', Arial; font-size: 12px; fill: rgb(84, 86, 91); fill-opacity: 1; white-space: pre; opacity: 1;">Oct</text></g><g class="xtick"><text text-anchor="middle" x="0" y="438" transform="translate(497.26,0)" style="font-family: 'Helvetica Neue', Arial; font-size: 12px; fill: rgb(84, 86, 91); fill-opacity: 1; white-space: pre; opacity: 1;">Nov</text></g><g class="xtick"><text text-anchor="middle" x="0" y="438" transform="translate(536.13,0)" style="font-family: 'Helvetica Neue', Arial; font-size: 12px; fill: rgb(84, 86, 91); fill-opacity: 1; white-space: pre; opacity: 1;">Dec</text></g></g><g class="yaxislayer-above"><g class="ytick"><text text-anchor="end" x="59" y="4.199999999999999" transform="translate(0,422.71)" style="font-family: 'Helvetica Neue', Arial; font-size: 12px; fill: rgb(84, 86, 91); fill-opacity: 1; white-space: pre; opacity: 1;">76,000</text></g><g class="ytick"><text text-anchor="end" x="59" y="4.199999999999999" style="font-family: 'Helvetica Neue', Arial; font-size: 12px; fill: rgb(84, 86, 91); fill-opacity: 1; white-space: pre; opacity: 1;" transform="translate(0,376.94)">78,000</text></g><g class="ytick"><text text-anchor="end" x="59" y="4.199999999999999" style="font-family: 'Helvetica Neue', Arial; font-size: 12px; fill: rgb(84, 86, 91); fill-opacity: 1; white-space: pre; opacity: 1;" transform="translate(0,331.15999999999997)">80,000</text></g><g class="ytick"><text text-anchor="end" x="59" y="4.199999999999999" style="font-family: 'Helvetica Neue', Arial; font-size: 12px; fill: rgb(84, 86, 91); fill-opacity: 1; white-space: pre; opacity: 1;" transform="translate(0,285.39)">82,000</text></g><g class="ytick"><text text-anchor="end" x="59" y="4.199999999999999" style="font-family: 'Helvetica Neue', Arial; font-size: 12px; fill: rgb(84, 86, 91); fill-opacity: 1; white-space: pre; opacity: 1;" transform="translate(0,239.61)">84,000</text></g><g class="ytick"><text text-anchor="end" x="59" y="4.199999999999999" style="font-family: 'Helvetica Neue', Arial; font-size: 12px; fill: rgb(84, 86, 91); fill-opacity: 1; white-space: pre; opacity: 1;" transform="translate(0,193.84)">86,000</text></g><g class="ytick"><text text-anchor="end" x="59" y="4.199999999999999" style="font-family: 'Helvetica Neue', Arial; font-size: 12px; fill: rgb(84, 86, 91); fill-opacity: 1; white-space: pre; opacity: 1;" transform="translate(0,148.06)">88,000</text></g><g class="ytick"><text text-anchor="end" x="59" y="4.199999999999999" style="font-family: 'Helvetica Neue', Arial; font-size: 12px; fill: rgb(84, 86, 91); fill-opacity: 1; white-space: pre; opacity: 1;" transform="translate(0,102.29)">90,000</text></g></g><g class="overaxes-above"/></g></g><g class="polarlayer"/><g class="smithlayer"/><g class="ternarylayer"/><g class="geolayer"/><g class="funnelarealayer"/><g class="pielayer"/><g class="iciclelayer"/><g class="treemaplayer"/><g class="sunburstlayer"/><g class="glimages"/><defs id="topdefs-4e6444"><g class="clips"/></defs><g class="layer-above"><g class="imagelayer"/><g class="shapelayer"/></g><g class="infolayer"><g class="g-gtitle"><text class="gtitle" x="327.5" y="30" text-anchor="middle" dy="0em" style="font-family: 'Helvetica Neue', Arial; font-size: 17px; fill: rgb(84, 86, 91); opacity: 1; font-weight: normal; white-space: pre;"><tspan style="font-weight:bold">Prison population in England and Wales</tspan></text></g><g class="g-xtitle"/><g class="g-ytitle"/><g class="annotation" data-index="0" style="opacity: 1;"><g class="annotation-text-g" transform="rotate(0,578.28,267.74)"><g class="cursor-pointer" transform="translate(565,260)"><rect class="bg" x="0.5" y="0.5" width="25" height="15" style="stroke-width: 1px; stroke: rgb(0, 0, 0); stroke-opacity: 0; fill: rgb(0, 0, 0); fill-opacity: 0;"/><text class="annotation-text" text-anchor="start" x="2" y="11.5" style="font-family: 'Helvetica Neue', Arial; font-size: 10px; fill: rgb(160, 29, 40); fill-opacity: 1; white-space: pre;">2019</text></g></g></g><g class="annotation" data-index="1" style="opacity: 1;"><g class="annotation-text-g" transform="rotate(0,568.5699999999999,362.79)"><g class="cursor-pointer" transform="translate(556,355)"><rect class="bg" x="0.5" y="0.5" width="25" height="15" style="stroke-width: 1px; stroke: rgb(0, 0, 0); stroke-opacity: 0; fill: rgb(0, 0, 0); fill-opacity: 0;"/><text class="annotation-text" text-anchor="start" x="2" y="11.5" style="font-family: 'Helvetica Neue', Arial; font-size: 10px; fill: rgb(73, 156, 201); fill-opacity: 1; white-space: pre;">2020</text></g></g></g><g class="annotation" data-index="2" style="opacity: 1;"><g class="annotation-text-g" transform="rotate(0,588,351.94)"><g class="cursor-pointer" transform="translate(575,344)"><rect class="bg" x="0.5" y="0.5" width="25" height="15" style="stroke-width: 1px; stroke: rgb(0, 0, 0); stroke-opacity: 0; fill: rgb(0, 0, 0); fill-opacity: 0;"/><text class="annotation-text" text-anchor="start" x="2" y="11.5" style="font-family: 'Helvetica Neue', Arial; font-size: 10px; fill: rgb(249, 162, 55); fill-opacity: 1; white-space: pre;">2021</text></g></g></g><g class="annotation" data-index="3" style="opacity: 1;"><g class="annotation-text-g" transform="rotate(0,588,281.36)"><g class="cursor-pointer" transform="translate(575,273)"><rect class="bg" x="0.5" y="0.5" width="25" height="15" style="stroke-width: 1px; stroke: rgb(0, 0, 0); stroke-opacity: 0; fill: rgb(0, 0, 0); fill-opacity: 0;"/><text class="annotation-text" text-anchor="start" x="2" y="11.5" style="font-family: 'Helvetica Neue', Arial; font-size: 10px; fill: rgb(111, 186, 58); fill-opacity: 1; white-space: pre;">2022</text></g></g></g><g class="annotation" data-index="4" style="opacity: 1;"><g class="annotation-text-g" transform="rotate(0,519.98,154.84)"><g class="cursor-pointer" transform="translate(507,147)"><rect class="bg" x="0.5" y="0.5" width="25" height="15" style="stroke-width: 1px; stroke: rgb(0, 0, 0); stroke-opacity: 0; fill: rgb(0, 0, 0); fill-opacity: 0;"/><text class="annotation-text" text-anchor="start" x="2" y="11.5" style="font-family: 'Helvetica Neue', Arial; font-size: 10px; fill: rgb(87, 61, 107); fill-opacity: 1; white-space: pre;">2023</text></g></g></g><g class="annotation" data-index="5" style="opacity: 1;"><g class="annotation-text-g" transform="rotate(0,172.8,477.75)"><g class="cursor-pointer" transform="translate(19,469)"><rect class="bg" x="0.5" y="0.5" width="307" height="17" style="stroke-width: 1px; stroke: rgb(0, 0, 0); stroke-opacity: 0; fill: rgb(0, 0, 0); fill-opacity: 0;"/><text class="annotation-text" text-anchor="start" x="2" y="13.5" style="font-family: 'Helvetica Neue', Arial; font-size: 12px; fill: rgb(84, 86, 91); fill-opacity: 1; white-space: pre;"><tspan style="font-weight:bold">Source: Ministry of Justice Prison Population Bulletin</tspan></text></g></g></g><g class="annotation" data-index="6" style="opacity: 1;"><g class="annotation-text-g" transform="rotate(0,115.22,95.99999999999999)"><g class="cursor-pointer" transform="translate(70,87)"><rect class="bg" x="0.5" y="0.5" width="90" height="17" style="stroke-width: 1px; stroke: rgb(0, 0, 0); stroke-opacity: 0; fill: rgb(0, 0, 0); fill-opacity: 0;"/><text class="annotation-text" text-anchor="start" x="2" y="13.5" style="font-family: 'Helvetica Neue', Arial; font-size: 12px; fill: rgb(84, 86, 91); fill-opacity: 1; white-space: pre;">People in prison</text></g></g></g></g></svg>